<svg xmlns="http://www.w3.org/2000/svg" xmlns:xlink="http://www.w3.org/1999/xlink" width="1366" zoomAndPan="magnify" viewBox="0 0 1024.5 576" height="768" preserveAspectRatio="xMidYMid meet" version="1.0"><defs><clipPath id="b01fe66693"><path d="M 0 0.140625 L 1024 0.140625 L 1024 575.859375 L 0 575.859375 Z M 0 0.140625 " clip-rule="nonzero"/></clipPath></defs><g clip-path="url(#b01fe66693)"><path fill="#ffffff" d="M 0 0.140625 L 1024 0.140625 L 1024 575.859375 L 0 575.859375 Z M 0 0.140625 " fill-opacity="1" fill-rule="nonzero"/><path fill="#c0aafd" d="M 0 0.140625 L 1024 0.140625 L 1024 575.859375 L 0 575.859375 Z M 0 0.140625 " fill-opacity="1" fill-rule="nonzero"/><path fill="#c0aafd" d="M 1023.988281 767.453125 L 975.21875 767.453125 C 975.21875 767.453125 857.4375 735.257812 848.210938 767.453125 L 765.636719 767.453125 C 755.492188 736.050781 704.359375 737.351562 697.605469 767.453125 L 564.308594 767.453125 C 535.398438 729.773438 485.449219 727.402344 481.898438 767.453125 L 408.238281 767.453125 C 398.519531 759.34375 267.441406 749.644531 258 767.453125 L 224.082031 767.453125 C 207.996094 727.410156 178.265625 738.921875 161.332031 767.453125 L 60.25 767.453125 C 42.585938 726.628906 -17.96875 675.800781 -17.96875 675.800781 L -17.96875 571.445312 C 5.425781 555.996094 4.4375 502.089844 -17.96875 467.15625 L -17.96875 337.125 C 14.582031 306.0625 1.039062 265.035156 -17.96875 238.445312 L -17.96875 114.691406 C -17.96875 114.691406 -6.023438 117.15625 -17.96875 108.761719 L -17.96875 -14.015625 L 30.519531 -14.015625 C 30.519531 -14.015625 39.175781 12.164062 43.625 6.925781 C 48.082031 1.695312 50.402344 -14.015625 50.402344 -14.015625 L 140.859375 -14.015625 C 140.859375 -14.015625 164.800781 1.359375 209.300781 -4.625 C 253.796875 -10.605469 259.382812 -14.015625 259.382812 -14.015625 L 303.023438 -14.015625 C 303.023438 -14.015625 309.007812 13.601562 340.152344 4.769531 C 371.289062 -4.0625 389.046875 -14.015625 389.046875 -14.015625 L 508.089844 -14.015625 C 508.089844 -14.015625 518.527344 31.519531 535.722656 -14.015625 L 617.28125 -14.015625 C 639.289062 7.972656 725.992188 -14.015625 725.992188 -14.015625 L 831.207031 -14.015625 C 854.40625 12.421875 866.015625 -6.433594 897.773438 -14.015625 L 926.734375 -14.015625 C 926.734375 -14.015625 940.511719 22.105469 961.1875 15.566406 C 981.863281 9.023438 1023.988281 -5.539062 1023.988281 -5.539062 L 1023.988281 61.871094 C 1023.988281 61.871094 997.808594 169.363281 1023.988281 184.71875 L 1023.988281 294.808594 C 1008.296875 307.628906 1006.648438 401.292969 1023.988281 415.75 L 1023.988281 509.699219 C 1003.324219 522.234375 1000.421875 529.753906 1023.988281 548.375 L 1023.988281 610.050781 C 999.660156 644.980469 1001.207031 695.339844 1023.988281 724.207031 Z M 1023.988281 767.453125 " fill-opacity="1" fill-rule="nonzero"/><path fill="#1c1917" d="M 47.53125 468.632812 C 51.144531 502.800781 55.417969 536.542969 58.875 570.621094 C 35.015625 574.902344 9.863281 575.890625 -17.96875 571.433594 L -17.96875 467.148438 C 4.285156 473.046875 25.765625 472.804688 47.53125 468.632812 Z M 49.679688 226.050781 C 25.613281 233.195312 3.085938 238.171875 -17.96875 238.445312 L -17.96875 337.125 C 1.457031 340.726562 20.699219 340.738281 40.011719 338.367188 C 40.226562 314.171875 41.546875 289.363281 44.429688 263.722656 C 45.871094 250.789062 47.644531 238.230469 49.679688 226.050781 Z M 50.402344 -14.015625 L 30.519531 -14.015625 C 19.070312 7.515625 -0.394531 48.839844 -17.96875 108.761719 L -17.96875 114.691406 C -0.0195312 117.9375 32.117188 121.746094 76.542969 119.222656 C 93.097656 70.777344 112.683594 32.160156 129.625 3.894531 C 100.667969 1.828125 74.496094 -3.921875 50.402344 -14.015625 Z M 58.875 570.621094 C 62.652344 607.800781 65.441406 645.378906 65.316406 684.371094 C 98.316406 681.519531 130.683594 672.300781 163.691406 661.546875 C 162.15625 625.230469 158.800781 584.449219 153.894531 539.859375 C 122.21875 552.589844 91.761719 564.71875 58.875 570.621094 Z M 135.394531 313.5 C 102.691406 324.5 71.261719 334.53125 40.011719 338.367188 C 39.613281 383.414062 43.0625 426.355469 47.53125 468.632812 C 77.324219 462.925781 107.65625 449.910156 141.265625 435.328125 C 136.148438 391.511719 132.996094 353.070312 135.394531 313.5 Z M 199.183594 99.195312 C 151.6875 111.640625 110.515625 117.289062 76.542969 119.222656 C 65.777344 150.722656 56.300781 186.386719 49.679688 226.050781 C 83.714844 215.949219 120.824219 201.507812 161.179688 189.949219 C 170.644531 162.546875 183.085938 132.703125 199.183594 99.195312 Z M 169.789062 423.078125 C 160 427.199219 150.515625 431.328125 141.277344 435.339844 C 144.125 459.707031 147.574219 485.746094 151.003906 514.574219 C 152.023438 523.140625 152.988281 531.578125 153.90625 539.878906 C 177.46875 530.417969 201.707031 520.648438 228.144531 512.886719 C 239.457031 509.566406 250.691406 506.882812 261.875 504.765625 C 258.285156 468.214844 254.589844 432.652344 253.226562 397.414062 C 224.847656 402.277344 198.269531 411.070312 169.789062 423.078125 Z M 289.910156 171.113281 C 243.753906 170.007812 200.894531 178.574219 161.179688 189.949219 C 145.234375 236.09375 137.734375 275.320312 135.40625 313.488281 C 175.050781 300.148438 216.542969 285.394531 261.8125 278.527344 C 269.742188 238.515625 279.335938 202.84375 289.910156 171.113281 Z M 261.855469 504.753906 C 265.761719 544.550781 269.546875 585.527344 270.046875 628.539062 C 310.777344 618.617188 354.042969 613.273438 401.695312 619.695312 C 395.386719 583.910156 387.714844 544.957031 381.984375 502.507812 C 342.648438 497.011719 302.699219 497.023438 261.855469 504.753906 Z M 378.464844 302.070312 C 379.644531 295.550781 380.894531 289.128906 382.1875 282.78125 C 382.003906 282.738281 381.832031 282.699219 381.648438 282.65625 C 338.476562 272.574219 298.882812 272.910156 261.804688 278.535156 C 259.738281 288.945312 257.785156 299.640625 255.953125 310.648438 C 252.542969 339.597656 252.085938 368.394531 253.207031 397.414062 C 288.289062 391.390625 326.121094 391.390625 373.710938 398.808594 C 373.195312 368.128906 374.476562 335.914062 378.464844 302.070312 Z M 373.722656 398.800781 C 374.355469 435.53125 377.609375 470.046875 381.996094 502.515625 C 426.066406 508.683594 469.359375 521.746094 512.289062 538.566406 C 505.796875 503.308594 500.183594 466.230469 496.265625 427.441406 C 448.398438 413.582031 408.453125 404.210938 373.722656 398.800781 Z M 492.417969 316.003906 C 495.144531 277.417969 502.605469 239.890625 512.820312 204.53125 C 476.953125 199.109375 441.671875 193.214844 407.464844 187.457031 C 397.867188 216.621094 389.210938 248.417969 382.1875 282.78125 C 430.917969 294.1875 465.332031 305.753906 492.417969 316.003906 Z M 538.21875 549.179688 C 529.589844 545.507812 520.941406 541.964844 512.28125 538.566406 C 520.1875 581.507812 529.386719 621.742188 538.371094 659.113281 C 582.347656 670.550781 623.621094 675.140625 662.386719 675.203125 C 652.140625 647.332031 642.128906 616.207031 633.84375 578.128906 C 603.175781 573.042969 571.703125 563.425781 538.21875 549.179688 Z M 492.417969 316.003906 C 491.1875 333.453125 490.921875 351.128906 491.816406 368.914062 C 492.816406 388.828125 494.339844 408.34375 496.265625 427.441406 C 502.125 429.140625 508.097656 430.902344 514.203125 432.734375 C 553.753906 444.609375 587.203125 450.742188 616.527344 452.910156 C 616.152344 447.640625 615.792969 442.269531 615.480469 436.792969 C 613.789062 407.9375 614.523438 378.742188 617.078125 349.773438 C 569.527344 350.558594 544.585938 335.742188 492.417969 316.003906 Z M 665.785156 131.777344 C 623.558594 127.410156 584.984375 118.914062 548.078125 109.675781 C 534.960938 138.65625 522.628906 170.597656 512.820312 204.542969 C 554.46875 210.839844 596.917969 216.527344 639.410156 220.699219 C 647.246094 189.378906 656.332031 159.453125 665.785156 131.777344 Z M 616.527344 452.902344 C 620.089844 502.40625 626.246094 543.199219 633.84375 578.128906 C 680.265625 585.832031 724.832031 583.144531 771.730469 570.34375 C 762.980469 545.800781 753.597656 516.699219 743.464844 480.945312 C 739.597656 467.300781 736.445312 453.625 733.929688 439.957031 C 700.027344 449.613281 663.597656 456.382812 616.527344 452.902344 Z M 716.488281 334.398438 C 719.746094 333.636719 722.992188 332.882812 726.226562 332.140625 C 727.40625 295.996094 732.046875 260.761719 738.90625 227.273438 C 705.957031 226.296875 672.675781 223.964844 639.421875 220.699219 C 629.105469 261.941406 620.972656 305.601562 617.085938 349.765625 C 641.773438 349.355469 672.582031 344.738281 716.488281 334.398438 Z M 764.609375 133.40625 C 778.957031 91.402344 795.226562 54.800781 809.59375 26.136719 C 776.59375 33.554688 742.140625 32.609375 706.730469 27.308594 C 694.207031 55.5625 679.613281 91.269531 665.785156 131.777344 C 696.535156 134.953125 729.21875 135.929688 764.609375 133.40625 Z M 771.722656 570.34375 C 784.695312 606.761719 796.253906 633.167969 806.703125 656.460938 C 855.464844 644.636719 899.199219 629.808594 938.628906 619.992188 C 929.214844 590.523438 919.34375 563.109375 909.710938 536.605469 C 877.941406 538.058594 846.101562 543.765625 816.808594 555.265625 C 801.472656 561.289062 786.484375 566.316406 771.722656 570.34375 Z M 733.929688 439.957031 C 776.554688 427.808594 815.199219 411.082031 866.007812 404.324219 C 858.191406 374.246094 852.136719 342.90625 848.800781 308.664062 C 809.992188 314.597656 768.792969 322.382812 726.226562 332.140625 C 725.066406 367.46875 727.234375 403.671875 733.929688 439.957031 Z M 848.851562 224.738281 C 852.585938 186.316406 860.9375 149.625 871.378906 116.097656 C 833.019531 125.632812 797.628906 131.042969 764.609375 133.40625 C 754.699219 162.40625 745.714844 193.96875 738.894531 227.273438 C 776.136719 228.371094 812.960938 227.742188 848.851562 224.738281 Z M 897.773438 -14.015625 L 831.207031 -14.015625 C 825.039062 -3.402344 817.613281 10.121094 809.59375 26.125 C 819.6875 23.855469 829.660156 20.816406 839.46875 16.867188 C 862.433594 7.628906 881.65625 -2.875 897.773438 -14.015625 Z M 866.007812 404.3125 C 877.726562 449.441406 893.398438 491.710938 909.71875 536.605469 C 949.679688 534.773438 989.515625 539.695312 1023.988281 548.375 L 1023.988281 509.699219 C 1004.453125 476.089844 990.359375 441.597656 980.621094 407.082031 C 934.882812 399.765625 898.027344 400.0625 866.007812 404.3125 Z M 848.269531 303.070312 C 848.433594 304.941406 848.605469 306.804688 848.789062 308.65625 C 889.949219 302.355469 928.410156 298.132812 962.917969 295.8125 C 961.441406 264.421875 962.734375 233.816406 965.90625 204.695312 C 928.585938 214.972656 889.316406 221.359375 848.851562 224.738281 C 846.378906 250.230469 845.929688 276.480469 848.269531 303.070312 Z M 1023.988281 -14.015625 L 926.734375 -14.015625 C 909.8125 17.527344 887.964844 62.820312 871.378906 116.097656 C 908.875 106.777344 949.21875 93.519531 992.984375 75.335938 C 1003.476562 41.480469 1014.851562 13.722656 1023.988281 -5.539062 Z M 1023.988281 415.75 L 1023.988281 293.648438 C 1005.46875 293.625 985.007812 294.328125 962.917969 295.824219 C 964.625 332.222656 970.070312 369.667969 980.621094 407.089844 C 994.257812 409.257812 1008.675781 412.117188 1023.988281 415.75 Z M 1023.988281 184.71875 L 1023.988281 61.871094 C 1013.46875 66.632812 1003.128906 71.121094 992.984375 75.335938 C 981.539062 112.269531 971.148438 156.441406 965.90625 204.695312 C 985.863281 199.199219 1005.257812 192.574219 1023.988281 184.71875 Z M 1023.988281 724.195312 L 1023.988281 610.039062 C 997.949219 607.667969 969.621094 612.277344 938.636719 619.992188 C 948.742188 651.617188 958.335938 685.589844 966.570312 723.320312 C 984.527344 722.914062 1003.648438 723.179688 1023.988281 724.195312 Z M 662.386719 675.203125 C 674.628906 708.484375 687.195312 737.128906 697.605469 767.453125 L 765.636719 767.453125 C 786.792969 757.214844 811.230469 747.570312 840.363281 739.90625 C 830.421875 708.433594 819.394531 684.738281 806.714844 656.460938 C 762.847656 667.101562 714.914062 675.292969 662.386719 675.203125 Z M 401.695312 619.695312 C 410.121094 667.507812 416.09375 709.695312 411.757812 747.113281 C 435.234375 750.742188 458.820312 757.234375 481.886719 767.441406 L 564.296875 767.441406 C 557.0625 734.65625 547.84375 698.484375 538.371094 659.105469 C 518.957031 654.058594 499.023438 647.679688 478.539062 639.75 C 451.605469 629.34375 426.074219 622.980469 401.695312 619.695312 Z M 270.046875 628.539062 C 232.976562 637.574219 197.996094 650.382812 163.691406 661.558594 C 165.445312 703 164.792969 738.625 161.324219 767.453125 L 224.074219 767.453125 C 235.308594 763.71875 247.324219 760.136719 259.972656 756.929688 C 268.050781 711.8125 270.523438 669.261719 270.046875 628.539062 Z M -17.96875 675.800781 L -17.96875 766.292969 C -16.816406 766.679688 -15.65625 767.066406 -14.496094 767.453125 L 60.25 767.453125 C 63.75 738.871094 65.238281 711.285156 65.316406 684.371094 C 38.210938 686.71875 10.675781 684.746094 -17.96875 675.800781 Z M 259.972656 756.929688 C 259.351562 760.421875 258.679688 763.929688 257.988281 767.453125 L 408.226562 767.453125 C 409.785156 760.828125 410.953125 754.0625 411.757812 747.121094 C 358.164062 738.839844 305.121094 745.472656 259.972656 756.929688 Z M 848.199219 767.453125 L 975.207031 767.453125 C 972.542969 752.167969 969.652344 737.476562 966.558594 723.320312 C 916.324219 724.460938 875.03125 730.78125 840.355469 739.90625 C 843.050781 748.433594 845.664062 757.542969 848.199219 767.453125 Z M 199.183594 99.195312 C 201.789062 98.515625 204.414062 97.8125 207.050781 97.089844 C 207.070312 97.078125 207.101562 97.078125 207.121094 97.070312 C 209.777344 96.347656 212.445312 95.59375 215.140625 94.820312 C 220.695312 93.234375 226.332031 91.554688 232.050781 89.773438 C 267.421875 78.761719 300.15625 73.65625 331.363281 72.566406 C 316.914062 100.113281 302.6875 132.722656 289.898438 171.113281 C 304.378906 171.460938 319.191406 172.761719 334.324219 175.226562 C 358 179.09375 382.441406 183.246094 407.453125 187.457031 C 420.246094 148.578125 434.683594 114.378906 449.101562 85 C 410.871094 76.6875 372.449219 71.132812 331.351562 72.566406 C 351.183594 34.804688 371.433594 6.558594 389.046875 -14.015625 L 303.023438 -14.015625 C 286.011719 -10.421875 269.699219 -7.277344 254.039062 -4.652344 C 232.234375 33.777344 214.132812 68.070312 199.183594 99.195312 Z M 605.242188 4.320312 C 582.226562 -1.894531 559.003906 -8.328125 535.722656 -14.015625 L 508.089844 -14.015625 C 492.265625 7.820312 470.722656 40.984375 449.113281 85 C 481.722656 92.09375 514.203125 101.191406 548.078125 109.667969 C 567.339844 67.101562 588.261719 30.949219 605.242188 4.320312 Z M 725.992188 -14.015625 L 617.28125 -14.015625 C 613.574219 -8.539062 609.535156 -2.425781 605.242188 4.320312 C 639.636719 13.601562 673.601562 22.351562 706.730469 27.308594 C 714.046875 10.824219 720.652344 -3.117188 725.992188 -14.015625 Z M 254.039062 -4.652344 C 255.789062 -7.746094 257.582031 -10.871094 259.382812 -14.015625 L 140.859375 -14.015625 C 137.296875 -8.601562 133.535156 -2.640625 129.625 3.894531 C 166.195312 6.488281 207.203125 3.203125 254.039062 -4.652344 Z M 254.039062 -4.652344 " fill-opacity="1" fill-rule="nonzero"/></g></svg>