<svg xmlns="http://www.w3.org/2000/svg" xmlns:xlink="http://www.w3.org/1999/xlink" width="1366" zoomAndPan="magnify" viewBox="0 0 1024.5 576" height="768" preserveAspectRatio="xMidYMid meet" version="1.0"><defs><clipPath id="634b693dfc"><path d="M 0 0.140625 L 1024 0.140625 L 1024 575.859375 L 0 575.859375 Z M 0 0.140625 " clip-rule="nonzero"/></clipPath><clipPath id="93d5d05b06"><path d="M 599.296875 0.140625 L 1024 0.140625 L 1024 10.796875 L 599.296875 10.796875 Z M 599.296875 0.140625 " clip-rule="nonzero"/></clipPath><clipPath id="49dc973fe7"><path d="M 599.296875 10.796875 L 1024 10.796875 L 1024 121.019531 L 599.296875 121.019531 Z M 599.296875 10.796875 " clip-rule="nonzero"/></clipPath><clipPath id="3148e261b0"><path d="M 599.296875 121.019531 L 1024 121.019531 L 1024 231.242188 L 599.296875 231.242188 Z M 599.296875 121.019531 " clip-rule="nonzero"/></clipPath><clipPath id="48442d2d43"><path d="M 599.296875 231.242188 L 1024 231.242188 L 1024 341.46875 L 599.296875 341.46875 Z M 599.296875 231.242188 " clip-rule="nonzero"/></clipPath><clipPath id="5896104260"><path d="M 599.296875 341.46875 L 1024 341.46875 L 1024 451.691406 L 599.296875 451.691406 Z M 599.296875 341.46875 " clip-rule="nonzero"/></clipPath><clipPath id="7ee1013906"><path d="M 599.296875 451.691406 L 1024 451.691406 L 1024 561.914062 L 599.296875 561.914062 Z M 599.296875 451.691406 " clip-rule="nonzero"/></clipPath><clipPath id="5ab3a8ad43"><path d="M 599.296875 561.914062 L 1024 561.914062 L 1024 575.859375 L 599.296875 575.859375 Z M 599.296875 561.914062 " clip-rule="nonzero"/></clipPath><clipPath id="154e661e6d"><path d="M 0 0.140625 L 877.898438 0.140625 L 877.898438 10.796875 L 0 10.796875 Z M 0 0.140625 " clip-rule="nonzero"/></clipPath><clipPath id="e1c14c7214"><path d="M 0 10.796875 L 877.898438 10.796875 L 877.898438 121.019531 L 0 121.019531 Z M 0 10.796875 " clip-rule="nonzero"/></clipPath><clipPath id="750b0f9e1f"><path d="M 0 121.019531 L 877.898438 121.019531 L 877.898438 231.242188 L 0 231.242188 Z M 0 121.019531 " clip-rule="nonzero"/></clipPath><clipPath id="06d2132bf7"><path d="M 0 231.242188 L 877.898438 231.242188 L 877.898438 341.46875 L 0 341.46875 Z M 0 231.242188 " clip-rule="nonzero"/></clipPath><clipPath id="dd629a54cf"><path d="M 0 341.46875 L 877.898438 341.46875 L 877.898438 451.691406 L 0 451.691406 Z M 0 341.46875 " clip-rule="nonzero"/></clipPath><clipPath id="515c60f283"><path d="M 0 451.691406 L 877.898438 451.691406 L 877.898438 561.914062 L 0 561.914062 Z M 0 451.691406 " clip-rule="nonzero"/></clipPath><clipPath id="a85f6e9986"><path d="M 0 561.914062 L 877.898438 561.914062 L 877.898438 575.859375 L 0 575.859375 Z M 0 561.914062 " clip-rule="nonzero"/></clipPath></defs><g clip-path="url(#634b693dfc)"><path fill="#ffffff" d="M 0 0.140625 L 1024 0.140625 L 1024 575.859375 L 0 575.859375 Z M 0 0.140625 " fill-opacity="1" fill-rule="nonzero"/><path fill="#c0aafd" d="M 0 0.140625 L 1024 0.140625 L 1024 575.859375 L 0 575.859375 Z M 0 0.140625 " fill-opacity="1" fill-rule="nonzero"/></g><g clip-path="url(#93d5d05b06)"><path fill="#c0aafd" d="M 1514.570312 -99.425781 L 1514.570312 10.835938 L 599.441406 10.835938 L 599.441406 -99.425781 Z M 1514.570312 -99.425781 " fill-opacity="1" fill-rule="nonzero"/></g><g clip-path="url(#49dc973fe7)"><path fill="#1c1917" d="M 1514.570312 10.796875 L 1514.570312 121.058594 L 599.441406 121.058594 L 599.441406 10.796875 Z M 1514.570312 10.796875 " fill-opacity="1" fill-rule="nonzero"/></g><g clip-path="url(#3148e261b0)"><path fill="#c0aafd" d="M 1514.570312 121.019531 L 1514.570312 231.28125 L 599.441406 231.28125 L 599.441406 121.019531 Z M 1514.570312 121.019531 " fill-opacity="1" fill-rule="nonzero"/></g><g clip-path="url(#48442d2d43)"><path fill="#1c1917" d="M 1514.570312 231.242188 L 1514.570312 341.503906 L 599.441406 341.503906 L 599.441406 231.242188 Z M 1514.570312 231.242188 " fill-opacity="1" fill-rule="nonzero"/></g><g clip-path="url(#5896104260)"><path fill="#c0aafd" d="M 1514.570312 341.46875 L 1514.570312 451.730469 L 599.441406 451.730469 L 599.441406 341.46875 Z M 1514.570312 341.46875 " fill-opacity="1" fill-rule="nonzero"/></g><g clip-path="url(#7ee1013906)"><path fill="#1c1917" d="M 1514.570312 451.691406 L 1514.570312 561.953125 L 599.441406 561.953125 L 599.441406 451.691406 Z M 1514.570312 451.691406 " fill-opacity="1" fill-rule="nonzero"/></g><g clip-path="url(#5ab3a8ad43)"><path fill="#c0aafd" d="M 1514.570312 561.914062 L 1514.570312 633.5625 L 599.441406 633.5625 L 599.441406 561.914062 Z M 1514.570312 561.914062 " fill-opacity="1" fill-rule="nonzero"/></g><g clip-path="url(#154e661e6d)"><path fill="#c0aafd" d="M 877.898438 -99.425781 L 877.898438 10.835938 L -37.230469 10.835938 L -37.230469 -99.425781 Z M 877.898438 -99.425781 " fill-opacity="1" fill-rule="nonzero"/></g><g clip-path="url(#e1c14c7214)"><path fill="#1c1917" d="M 877.898438 10.796875 L 877.898438 121.058594 L -37.230469 121.058594 L -37.230469 10.796875 Z M 877.898438 10.796875 " fill-opacity="1" fill-rule="nonzero"/></g><g clip-path="url(#750b0f9e1f)"><path fill="#c0aafd" d="M 877.898438 121.019531 L 877.898438 231.28125 L -37.230469 231.28125 L -37.230469 121.019531 Z M 877.898438 121.019531 " fill-opacity="1" fill-rule="nonzero"/></g><g clip-path="url(#06d2132bf7)"><path fill="#1c1917" d="M 877.898438 231.242188 L 877.898438 341.503906 L -37.230469 341.503906 L -37.230469 231.242188 Z M 877.898438 231.242188 " fill-opacity="1" fill-rule="nonzero"/></g><g clip-path="url(#dd629a54cf)"><path fill="#c0aafd" d="M 877.898438 341.46875 L 877.898438 451.730469 L -37.230469 451.730469 L -37.230469 341.46875 Z M 877.898438 341.46875 " fill-opacity="1" fill-rule="nonzero"/></g><g clip-path="url(#515c60f283)"><path fill="#1c1917" d="M 877.898438 451.691406 L 877.898438 561.953125 L -37.230469 561.953125 L -37.230469 451.691406 Z M 877.898438 451.691406 " fill-opacity="1" fill-rule="nonzero"/></g><g clip-path="url(#a85f6e9986)"><path fill="#c0aafd" d="M 877.898438 561.914062 L 877.898438 633.5625 L -37.230469 633.5625 L -37.230469 561.914062 Z M 877.898438 561.914062 " fill-opacity="1" fill-rule="nonzero"/></g></svg>