<svg xmlns="http://www.w3.org/2000/svg" xmlns:xlink="http://www.w3.org/1999/xlink" width="1366" zoomAndPan="magnify" viewBox="0 0 1024.5 576" height="768" preserveAspectRatio="xMidYMid meet" version="1.0"><defs><g/></defs><path stroke-linecap="butt" transform="matrix(1.762935, 0, 0, 1.762935, 137.78827, 215.719687)" fill="none" stroke-linejoin="miter" d="M 48.246517 20.504158 C 52.926213 20.504158 56.965552 20.931801 60.364536 21.78487 C 63.776814 22.624645 66.398064 23.807864 68.228286 25.334526 C 70.058508 26.847893 70.973619 28.569543 70.973619 30.495043 C 70.973619 32.462642 70.195885 34.066856 68.642634 35.305468 C 67.100462 36.544081 64.946738 37.16228 62.181463 37.16228 C 59.374089 37.16228 56.992142 36.462098 55.037837 35.057303 C 53.099043 33.639213 52.128537 31.864385 52.128537 29.732819 C 52.128537 29.001617 52.239326 28.294788 52.458686 27.605685 C 51.452729 27.33093 50.553129 27.193553 49.753237 27.193553 C 48.350658 27.193553 47.180734 27.530349 46.245681 28.203942 C 45.323923 28.877534 44.889633 29.834745 44.945027 31.073357 C 44.945027 32.546841 45.674014 33.792101 47.131987 34.809137 C 48.605471 35.815094 50.971908 37.080296 54.233514 38.606958 C 57.054183 39.845571 59.380736 40.988906 61.210958 42.034747 C 63.04118 43.080588 64.59 44.394537 65.855202 45.976593 C 67.135914 47.545354 67.774054 49.404381 67.774054 51.551458 C 67.774054 51.990179 67.658834 52.829954 67.423963 54.068567 C 66.528794 57.853093 64.02498 60.846592 59.910304 63.049062 C 55.795629 65.236022 50.380299 66.33061 43.664315 66.33061 C 36.124067 66.33061 30.13707 65.318006 25.70554 63.295012 C 21.274009 61.258724 19.06046 58.464644 19.06046 54.914989 C 19.06046 52.493158 19.789447 50.662936 21.24742 49.424323 C 22.720904 48.185711 24.675209 47.567512 27.110335 47.567512 C 29.917709 47.567512 32.319598 48.440523 34.313787 50.188762 C 36.323486 51.934785 37.327227 54.16606 37.327227 56.875941 C 37.327227 57.604928 37.245244 58.362719 37.079061 59.1471 C 38.428462 59.490544 39.722469 59.663373 40.961082 59.663373 C 42.43235 59.663373 43.644373 59.271183 44.592721 58.486802 C 45.556578 57.689127 46.039615 56.587891 46.039615 55.183096 C 45.984221 53.88909 45.337218 52.77456 44.098605 51.839507 C 42.859992 50.904454 40.885746 49.789924 38.173649 48.495918 C 35.64103 47.312699 33.558211 46.204817 31.918545 45.17227 C 30.281094 44.126429 28.885162 42.81248 27.728533 41.230424 C 26.574119 39.646152 25.995805 37.789341 25.995805 35.655559 C 25.995805 31.031258 27.921305 27.350872 31.77452 24.612186 C 35.64103 21.873501 41.131696 20.504158 48.246517 20.504158 Z M 122.390446 54.336674 C 122.279658 54.558251 122.224264 54.895047 122.224264 55.349279 C 122.224264 55.748117 122.321758 56.058324 122.514529 56.277684 C 122.707301 56.497045 122.975408 56.607833 123.318852 56.607833 C 123.99466 56.607833 124.570759 56.310921 125.053796 55.719312 C 125.534617 55.127702 125.858119 54.833006 126.024301 54.833006 C 126.299056 54.833006 126.518417 55.01913 126.684599 55.389163 C 126.86186 55.761411 126.952706 56.195701 126.952706 56.689817 C 127.008101 58.327267 126.46967 59.924834 125.341845 61.480301 C 124.214021 63.033552 122.563276 64.307617 120.387395 65.298064 C 118.227024 66.275216 115.625716 66.762684 112.585686 66.762684 C 108.856554 66.762684 105.889644 65.902968 103.68939 64.183534 C 101.500214 62.4641 100.379037 60.164136 100.323642 57.288073 C 100.323642 55.211901 100.833268 52.872054 101.85252 50.270745 L 106.496764 38.092901 C 106.771519 37.361698 106.908896 36.770089 106.908896 36.315857 C 106.908896 35.586871 106.667378 35.015203 106.186557 34.603071 C 105.71903 34.177644 105.140716 33.962715 104.451613 33.962715 C 103.392477 33.962715 102.313399 34.459046 101.212164 35.449493 C 100.110929 36.426646 99.222407 38.015349 98.548815 40.217819 L 98.548815 40.053853 L 93.222116 57.20609 C 93.044854 57.879682 92.954008 58.473508 92.954008 58.980918 C 92.954008 59.71212 93.091385 60.288219 93.368356 60.715862 C 93.656405 61.141289 94.055243 61.548989 94.564869 61.934532 C 94.963707 62.33337 95.245109 62.663519 95.411291 62.924979 C 95.590768 63.170929 95.617358 63.494431 95.493275 63.895485 C 95.21852 64.624471 94.6535 65.160686 93.80043 65.50413 C 92.960655 65.834279 91.668864 66.000461 89.920626 66.000461 L 70.641254 66.000461 C 69.181065 66.000461 68.115282 65.758943 67.44169 65.278122 C 66.752587 64.795085 66.526579 64.163592 66.759234 63.379211 C 66.98081 62.703403 67.57242 62.111794 68.536277 61.602168 C 69.373837 61.150152 70.076234 60.611721 70.641254 59.993522 C 71.204059 59.373108 71.687095 58.389308 72.085933 57.042123 L 84.924076 14.849526 C 85.103553 14.3399 85.194399 13.912257 85.194399 13.568814 C 85.194399 12.950615 85.034864 12.447636 84.718009 12.062093 C 84.416665 11.663256 84.008965 11.264418 83.501554 10.86558 C 82.936534 10.424643 82.524402 10.032453 82.262942 9.689009 C 82.014776 9.34335 81.972677 8.897981 82.138859 8.346255 C 82.482302 7.038954 84.25713 5.91113 87.463342 4.960566 C 90.685065 3.998924 94.041949 3.515888 97.538426 3.515888 C 100.797816 3.515888 103.199705 4.136302 104.741878 5.374914 C 106.297345 6.613527 107.075078 8.306372 107.075078 10.451232 C 107.075078 11.689845 106.882307 12.901868 106.496764 14.085087 L 101.934504 28.96838 C 104.121464 26.092317 106.44137 24.089266 108.88979 22.961441 C 111.353721 21.833617 114.023718 21.268597 116.899781 21.268597 C 120.325353 21.268597 123.099491 22.314438 125.217762 24.40612 C 127.33825 26.484508 128.397385 29.187741 128.397385 32.518036 C 128.397385 34.266275 128.115983 35.985708 127.550963 37.678553 Z M 160.765281 21.268597 C 167.246393 21.268597 172.435715 22.46511 176.328814 24.860352 C 180.224129 27.255594 182.171787 30.909391 182.171787 35.821742 C 182.171787 37.678553 181.826127 39.792393 181.13924 42.15883 L 177.671568 53.820401 C 177.616174 54.055272 177.587369 54.336674 177.587369 54.666823 C 177.587369 55.575287 177.959617 56.029519 178.704114 56.029519 C 179.377707 56.029519 179.949374 55.734822 180.416901 55.143213 C 180.897722 54.551603 181.227871 54.254691 181.407348 54.254691 C 181.682103 54.254691 181.916974 54.45411 182.109745 54.852947 C 182.315811 55.238491 182.417737 55.686075 182.417737 56.195701 C 182.473131 57.709069 181.894816 59.257888 180.685008 60.839945 C 179.472985 62.422001 177.848829 63.722655 175.812541 64.741907 C 173.789548 65.745648 171.567135 66.248627 169.145304 66.248627 C 166.213847 66.248627 163.703385 65.716843 161.611703 64.657708 C 159.533315 63.585277 158.095284 62.003221 157.297608 59.911539 C 155.604764 61.947827 153.601712 63.516589 151.29067 64.617824 C 148.992921 65.703549 146.515696 66.248627 143.858994 66.248627 C 140.872142 66.248627 138.361681 65.670312 136.325393 64.513683 C 134.302399 63.357054 132.795679 61.863628 131.805232 60.033406 C 130.82808 58.203184 130.338395 56.277684 130.338395 54.254691 C 130.338395 53.346227 130.420379 52.473216 130.586561 51.633441 C 131.495025 47.738126 133.455977 44.806669 136.469417 42.83907 C 139.482858 40.858176 143.074613 39.867729 147.244683 39.867729 C 151.924378 39.867729 156.519875 40.603363 161.033388 42.076846 L 163.138365 36.48204 C 163.867352 34.115603 164.232953 32.285381 164.232953 30.991374 C 164.177559 29.641973 163.723327 28.631584 162.870258 27.955776 C 162.030483 27.282183 160.736476 26.945387 158.990453 26.945387 C 159.333897 27.840556 159.506726 28.768962 159.506726 29.732819 C 159.506726 31.808991 158.715698 33.612624 157.131426 35.139286 C 155.54937 36.668164 153.293721 37.430387 150.362264 37.430387 C 147.610284 37.430387 145.45656 36.825483 143.901093 35.615676 C 142.345626 34.390357 141.567893 32.87699 141.567893 31.073357 C 141.567893 28.265983 143.143302 25.932782 146.294119 24.075971 C 149.460448 22.20365 154.284168 21.268597 160.765281 21.268597 Z M 156.039054 46.885056 C 154.454782 46.885056 153.169638 47.48996 152.176976 48.701984 C 151.199823 49.914007 150.712355 51.227956 150.712355 52.64383 C 150.712355 53.538999 150.918421 54.267985 151.332769 54.833006 C 151.758196 55.39581 152.369747 55.679428 153.169638 55.679428 C 153.898625 55.679428 154.6963 55.382515 155.562664 54.790906 C 156.444539 54.199297 157.084895 53.312991 157.483733 52.127556 L 159.258561 47.153164 C 158.294703 46.975903 157.222272 46.885056 156.039054 46.885056 Z M 227.391119 21.268597 C 230.557447 21.268597 233.081204 22.232455 234.96682 24.157955 C 236.852436 26.072376 237.794136 28.438813 237.794136 31.259481 C 237.794136 32.318617 237.685564 33.302417 237.463987 34.210881 C 236.901183 36.524139 235.826537 38.298967 234.24448 39.53758 C 232.662424 40.776192 230.770161 41.394391 228.56769 41.394391 C 226.433909 41.394391 224.818616 40.891412 223.717381 39.88767 C 222.616146 38.868419 221.645641 37.514586 220.805866 35.821742 C 220.351634 34.857884 219.926207 34.155486 219.527369 33.716765 C 219.141826 33.262533 218.694242 33.034309 218.184616 33.034309 C 217.619595 33.034309 217.12548 33.262533 216.697837 33.716765 C 216.27241 34.155486 215.893515 34.939867 215.563366 36.069907 L 209.040153 57.20609 C 208.929365 57.480845 208.876187 57.90184 208.876187 58.464644 C 208.876187 59.209141 209.0889 59.820693 209.514327 60.303729 C 209.94197 60.771256 210.520284 61.232135 211.249271 61.686367 C 211.922864 62.140599 212.370448 62.510631 212.589809 62.800897 C 212.82468 63.075651 212.913311 63.441253 212.860132 63.895485 C 212.736049 64.624471 212.321701 65.160686 211.62152 65.50413 C 210.919122 65.834279 209.722609 66.000461 208.029764 66.000461 L 186.395035 66.000461 C 184.923767 66.000461 183.864631 65.758943 183.217628 65.278122 C 182.570624 64.795085 182.329106 64.163592 182.495288 63.379211 C 182.727944 62.703403 183.319553 62.111794 184.270116 61.602168 C 185.123186 61.150152 185.83223 60.611721 186.395035 59.993522 C 186.960055 59.373108 187.434229 58.389308 187.819772 57.042123 L 195.355589 32.600019 C 195.464161 32.325264 195.519555 31.933074 195.519555 31.423448 C 195.519555 30.80525 195.388825 30.331076 195.127365 30.000927 C 194.879199 29.655268 194.473714 29.229841 193.908694 28.720215 C 193.34589 28.265983 192.947052 27.873793 192.712181 27.543644 C 192.49282 27.2002 192.470662 26.745968 192.650139 26.180948 C 192.980288 24.886941 194.748469 23.745822 197.954681 22.755375 C 201.176403 21.764928 204.533287 21.268597 208.029764 21.268597 C 210.340807 21.268597 212.253013 21.791518 213.76638 22.837359 C 215.295258 23.8832 216.285705 25.363331 216.739937 27.275536 C 219.449817 23.271649 223.001689 21.268597 227.391119 21.268597 Z M 263.503658 20.856465 C 270.660579 20.856465 275.841037 21.997584 279.047249 24.282037 C 282.268972 26.566491 283.877617 29.484654 283.877617 33.034309 C 283.877617 34.093445 283.760181 35.077245 283.527526 35.985708 C 282.687751 39.701546 280.334609 42.364896 276.468099 43.975757 C 272.614883 45.584402 268.065918 46.390941 262.823418 46.390941 C 260.166715 46.390941 257.682843 46.218111 255.3718 45.874668 C 255.316406 48.806125 256.107434 50.862355 257.744884 52.045573 C 259.382335 53.228792 261.666788 53.820401 264.598245 53.820401 C 265.947646 53.820401 267.241653 53.669729 268.480266 53.366169 C 269.716663 53.05153 271.300935 52.581788 273.226434 51.96359 C 274.795196 51.39857 275.863195 51.117168 276.425999 51.117168 C 277.046413 51.117168 277.354405 51.482769 277.354405 52.211756 C 277.409799 54.192649 276.674165 56.271037 275.147503 58.444703 C 273.631919 60.605073 271.382918 62.44859 268.396067 63.977468 C 265.411431 65.490835 261.804166 66.248627 257.580918 66.248627 C 251.319166 66.248627 246.185238 64.671002 242.181351 61.520184 C 238.190758 58.369367 236.194354 53.77387 236.194354 47.731479 C 236.194354 46.038634 236.41593 44.071035 236.854652 41.828681 C 238.272741 34.893336 241.361518 29.664131 246.123197 26.141064 C 250.884876 22.617998 256.679101 20.856465 263.503658 20.856465 Z M 255.970056 40.796134 C 256.189417 40.851528 256.499624 40.878117 256.898462 40.878117 C 259.264899 40.878117 261.068532 39.78353 262.307144 37.596569 C 263.545757 35.394099 264.137366 32.939031 264.081972 30.226935 C 264.026578 28.658173 263.581209 27.873793 262.741434 27.873793 C 262.12102 27.873793 261.385386 28.370124 260.532317 29.360571 C 259.692542 30.337723 258.859414 31.815639 258.035149 33.798748 C 257.221964 35.766348 256.535077 38.099548 255.970056 40.796134 Z M 304.411111 21.268597 C 307.686012 21.268597 310.079038 21.886795 311.594622 23.125408 C 313.121284 24.364021 313.885723 26.056865 313.885723 28.203942 C 313.885723 29.497948 313.686304 30.736561 313.287466 31.919779 L 305.503484 57.20609 C 305.339517 57.879682 305.257534 58.473508 305.257534 58.980918 C 305.257534 59.71212 305.394911 60.288219 305.669666 60.715862 C 305.957715 61.141289 306.356553 61.548989 306.866179 61.934532 C 307.251722 62.33337 307.526477 62.663519 307.692659 62.924979 C 307.872136 63.170929 307.905373 63.494431 307.794585 63.895485 C 307.506535 64.624471 306.934868 65.160686 306.081798 65.50413 C 305.242023 65.834279 303.950232 66.000461 302.201994 66.000461 L 282.942564 66.000461 C 281.46908 66.000461 280.39665 65.758943 279.723058 65.278122 C 279.047249 64.795085 278.821241 64.163592 279.040602 63.379211 C 279.275473 62.703403 279.867082 62.111794 280.81543 61.602168 C 281.668499 61.150152 282.377544 60.611721 282.942564 59.993522 C 283.507584 59.373108 283.981758 58.389308 284.367301 57.042123 L 291.736935 32.600019 C 291.900902 32.092609 291.982885 31.671614 291.982885 31.341465 C 291.982885 30.723266 291.838861 30.226935 291.550811 29.854686 C 291.276056 29.484654 290.855061 29.105758 290.290041 28.720215 C 289.727237 28.265983 289.328399 27.873793 289.093528 27.543644 C 288.874167 27.2002 288.845362 26.745968 289.011545 26.180948 C 289.354988 24.886941 291.129816 23.745822 294.336028 22.755375 C 297.55775 21.764928 300.914634 21.268597 304.411111 21.268597 Z M 310.087901 2.587482 C 312.274861 2.587482 314.098436 3.309821 315.556409 4.7545 C 317.029893 6.185884 317.765527 7.94077 317.765527 10.019158 C 317.765527 11.490426 317.386631 12.935105 316.631056 14.353194 C 315.873264 15.757989 314.800834 16.899108 313.409333 17.780983 C 312.033343 18.647347 310.500034 19.079421 308.807189 19.079421 C 306.673408 19.079421 304.885285 18.365945 303.440606 16.934561 C 302.009222 15.489882 301.264725 13.692896 301.211547 11.54582 C 301.211547 10.143241 301.574932 8.75174 302.303919 7.37575 C 303.035121 5.986466 304.072099 4.845347 305.4215 3.950178 C 306.784196 3.041714 308.339663 2.587482 310.087901 2.587482 Z M 347.616314 3.515888 C 353.643194 3.515888 358.163355 4.430999 361.176796 6.261221 C 364.205746 8.091442 365.719114 10.336012 365.719114 12.990499 C 365.719114 15.124281 364.830592 16.768378 363.055764 17.925008 C 361.280937 19.081637 358.954383 19.657736 356.07832 19.657736 C 353.423834 19.657736 351.358741 19.010732 349.887473 17.718941 C 348.427284 16.424935 347.698297 14.820721 347.698297 12.908516 C 347.698297 11.725297 348.070545 10.480037 348.812827 9.172736 C 347.119982 9.172736 345.710756 9.584868 344.580716 10.411348 C 343.452891 11.222318 342.57988 12.620466 341.959466 14.60136 C 341.616022 15.839973 341.443192 16.996602 341.443192 18.069032 C 341.443192 19.418433 341.684711 20.470922 342.165532 21.226497 C 342.648568 21.984289 343.335456 22.363185 344.230625 22.363185 L 349.224959 22.363185 C 352.156416 22.363185 353.623253 23.271649 353.623253 25.08636 C 353.623253 25.307937 353.567858 25.644733 353.45707 26.098965 C 353.113627 27.337577 352.417876 28.265983 351.372035 28.886397 C 350.341705 29.504596 348.77959 29.814803 346.687908 29.814803 L 344.148641 29.814803 L 335.78856 57.20609 C 335.609083 57.879682 335.520452 58.473508 335.520452 58.980918 C 335.520452 59.71212 335.65783 60.288219 335.932585 60.715862 C 336.220634 61.141289 336.619472 61.548989 337.129098 61.934532 C 337.527935 62.33337 337.811553 62.663519 337.97552 62.924979 C 338.154997 63.170929 338.181586 63.494431 338.057503 63.895485 C 337.782748 64.624471 337.219944 65.160686 336.366875 65.50413 C 335.5271 65.834279 334.233093 66.000461 332.484854 66.000461 L 313.205483 66.000461 C 311.747509 66.000461 310.679511 65.758943 310.005918 65.278122 C 309.316815 64.795085 309.090807 64.163592 309.325678 63.379211 C 309.545039 62.703403 310.136648 62.111794 311.100506 61.602168 C 311.940281 61.150152 312.640463 60.611721 313.205483 59.993522 C 313.770503 59.373108 314.251324 58.389308 314.650162 57.042123 L 321.235415 35.387452 C 321.523465 34.547677 321.669705 33.674665 321.669705 32.766202 C 321.669705 31.638377 321.428187 30.749856 320.947366 30.102852 C 320.464329 29.455849 319.74199 28.740157 318.778132 27.955776 C 318.159933 27.448366 317.692407 27.014076 317.375553 26.655122 C 317.071993 26.285089 316.921321 25.844152 316.921321 25.334526 C 316.865927 24.262096 317.244822 23.497657 318.055792 23.043425 C 318.882273 22.589193 320.451034 22.363185 322.762077 22.363185 L 324.86927 22.363185 C 324.483727 20.95839 324.290955 19.555811 324.290955 18.151016 C 324.290955 16.735142 324.545768 15.268305 325.053178 13.754938 C 326.11453 10.878875 328.405631 8.457044 331.928697 6.489444 C 335.451764 4.506335 340.680969 3.515888 347.616314 3.515888 Z M 396.489443 21.268597 C 398.966668 21.268597 400.949778 22.272339 402.43434 24.282037 C 403.934413 26.278442 404.685558 28.99497 404.685558 32.436053 C 404.685558 35.422904 404.149342 38.635763 403.074696 42.076846 C 400.996309 49.012191 397.659367 55.555345 393.06387 61.706309 C 388.468373 67.843978 383.197068 72.769623 377.252171 76.485461 C 371.307273 80.201299 365.37567 82.060326 359.459578 82.060326 C 356.528121 82.060326 354.002148 81.5507 351.883877 80.531448 C 349.776685 79.527707 348.174686 78.178306 347.073451 76.485461 C 345.972216 74.792617 345.422706 72.9912 345.422706 71.078995 C 345.422706 70.223709 345.560084 69.295304 345.834839 68.291562 C 346.344464 66.709506 347.190887 65.497483 348.374105 64.657708 C 349.557324 63.804638 350.968766 63.379211 352.606216 63.379211 C 355.192014 63.379211 357.319149 64.265517 358.983188 66.040345 C 360.649443 67.817389 361.708579 70.252514 362.162811 73.347938 C 365.767861 73.183971 369.091508 71.635152 372.133754 68.703695 C 369.255475 68.194069 367.130556 67.225779 365.754566 65.794395 C 364.378576 64.349716 363.43466 62.105146 362.92725 59.065117 L 359.541561 38.361008 C 359.375379 37.286362 359.136076 36.537434 358.819222 36.109791 C 358.515662 35.684364 358.110177 35.469435 357.600551 35.469435 C 357.201713 35.469435 356.734187 35.668854 356.197972 36.069907 C 355.659541 36.468745 355.282861 36.668164 355.061284 36.668164 C 354.607052 36.668164 354.381044 36.185127 354.381044 35.223485 C 354.381044 34.439104 354.525069 33.592682 354.813118 32.684218 C 355.819076 29.478006 357.704692 26.759263 360.469967 24.530203 C 363.235241 22.301144 366.450316 21.186614 370.11076 21.186614 C 373.71581 21.186614 376.379159 22.259044 378.098593 24.40612 C 379.818027 26.539902 380.932557 29.834745 381.442182 34.292864 L 383.981449 52.891995 C 384.145416 54.310085 384.648394 55.01913 385.488169 55.01913 C 386.507421 55.01913 387.69064 54.104019 389.037825 52.273797 C 390.40052 50.428065 391.729979 47.820109 393.02177 44.449931 C 391.328926 42.921053 390.030488 41.17503 389.122024 39.207431 C 388.226855 37.224321 387.77927 35.10605 387.77927 32.848185 C 387.77927 31.102162 388.007494 29.524537 388.45951 28.121958 C 389.135319 25.864094 390.187807 24.157955 391.619191 23.003541 C 393.06387 21.846912 394.688026 21.268597 396.489443 21.268597 Z M 396.489443 21.268597 " stroke="#1d794c" stroke-width="16.805822" stroke-opacity="1" stroke-miterlimit="4"/><g fill="#ffeedc" fill-opacity="1"><g transform="translate(173.790711, 332.073406)"><g><path d="M 49.046875 -80.203125 C 57.285156 -80.203125 64.410156 -79.453125 70.421875 -77.953125 C 76.441406 -76.460938 81.066406 -74.375 84.296875 -71.6875 C 87.523438 -69.007812 89.140625 -65.984375 89.140625 -62.609375 C 89.140625 -59.128906 87.769531 -56.296875 85.03125 -54.109375 C 82.300781 -51.921875 78.503906 -50.828125 73.640625 -50.828125 C 68.671875 -50.828125 64.46875 -52.066406 61.03125 -54.546875 C 57.601562 -57.035156 55.890625 -60.171875 55.890625 -63.953125 C 55.890625 -65.242188 56.09375 -66.484375 56.5 -67.671875 C 54.707031 -68.171875 53.113281 -68.421875 51.71875 -68.421875 C 49.238281 -68.421875 47.175781 -67.820312 45.53125 -66.625 C 43.894531 -65.4375 43.128906 -63.75 43.234375 -61.5625 C 43.234375 -58.976562 44.523438 -56.789062 47.109375 -55 C 49.691406 -53.21875 53.863281 -50.984375 59.625 -48.296875 C 64.59375 -46.109375 68.691406 -44.09375 71.921875 -42.25 C 75.148438 -40.414062 77.878906 -38.109375 80.109375 -35.328125 C 82.347656 -32.546875 83.46875 -29.265625 83.46875 -25.484375 C 83.46875 -24.691406 83.269531 -23.203125 82.875 -21.015625 C 81.289062 -14.359375 76.867188 -9.09375 69.609375 -5.21875 C 62.359375 -1.34375 52.816406 0.59375 40.984375 0.59375 C 27.671875 0.59375 17.113281 -1.191406 9.3125 -4.765625 C 1.507812 -8.347656 -2.390625 -13.269531 -2.390625 -19.53125 C -2.390625 -23.800781 -1.097656 -27.03125 1.484375 -29.21875 C 4.066406 -31.40625 7.5 -32.5 11.78125 -32.5 C 16.75 -32.5 20.992188 -30.957031 24.515625 -27.875 C 28.046875 -24.789062 29.8125 -20.863281 29.8125 -16.09375 C 29.8125 -14.800781 29.660156 -13.460938 29.359375 -12.078125 C 31.742188 -11.472656 34.03125 -11.171875 36.21875 -11.171875 C 38.800781 -11.171875 40.9375 -11.867188 42.625 -13.265625 C 44.320312 -14.660156 45.171875 -16.597656 45.171875 -19.078125 C 45.066406 -21.367188 43.921875 -23.332031 41.734375 -24.96875 C 39.546875 -26.601562 36.066406 -28.566406 31.296875 -30.859375 C 26.828125 -32.941406 23.148438 -34.898438 20.265625 -36.734375 C 17.390625 -38.578125 14.929688 -40.890625 12.890625 -43.671875 C 10.859375 -46.453125 9.84375 -49.734375 9.84375 -53.515625 C 9.84375 -61.660156 13.242188 -68.144531 20.046875 -72.96875 C 26.859375 -77.789062 36.523438 -80.203125 49.046875 -80.203125 Z M 49.046875 -80.203125 "/></g></g></g><g fill="#ffeedc" fill-opacity="1"><g transform="translate(262.177687, 332.073406)"><g><path d="M 91.375 -20.578125 C 91.175781 -20.171875 91.078125 -19.570312 91.078125 -18.78125 C 91.078125 -18.082031 91.25 -17.535156 91.59375 -17.140625 C 91.945312 -16.742188 92.421875 -16.546875 93.015625 -16.546875 C 94.203125 -16.546875 95.21875 -17.066406 96.0625 -18.109375 C 96.914062 -19.148438 97.488281 -19.671875 97.78125 -19.671875 C 98.28125 -19.671875 98.675781 -19.347656 98.96875 -18.703125 C 99.269531 -18.054688 99.421875 -17.285156 99.421875 -16.390625 C 99.523438 -13.515625 98.582031 -10.707031 96.59375 -7.96875 C 94.601562 -5.238281 91.695312 -3.003906 87.875 -1.265625 C 84.050781 0.472656 79.453125 1.34375 74.078125 1.34375 C 67.523438 1.34375 62.3125 -0.171875 58.4375 -3.203125 C 54.5625 -6.234375 52.570312 -10.285156 52.46875 -15.359375 C 52.46875 -19.035156 53.363281 -23.15625 55.15625 -27.71875 L 63.34375 -49.1875 C 63.84375 -50.476562 64.09375 -51.523438 64.09375 -52.328125 C 64.09375 -53.617188 63.671875 -54.632812 62.828125 -55.375 C 61.984375 -56.125 60.96875 -56.5 59.78125 -56.5 C 57.882812 -56.5 55.96875 -55.628906 54.03125 -53.890625 C 52.09375 -52.148438 50.53125 -49.34375 49.34375 -45.46875 L 49.34375 -45.765625 L 39.953125 -15.5 C 39.648438 -14.3125 39.5 -13.269531 39.5 -12.375 C 39.5 -11.082031 39.742188 -10.0625 40.234375 -9.3125 C 40.734375 -8.570312 41.429688 -7.851562 42.328125 -7.15625 C 43.023438 -6.457031 43.519531 -5.882812 43.8125 -5.4375 C 44.113281 -4.988281 44.164062 -4.414062 43.96875 -3.71875 C 43.476562 -2.425781 42.484375 -1.484375 40.984375 -0.890625 C 39.492188 -0.296875 37.210938 0 34.140625 0 L 0.15625 0 C -2.425781 0 -4.3125 -0.421875 -5.5 -1.265625 C -6.695312 -2.109375 -7.097656 -3.226562 -6.703125 -4.625 C -6.304688 -5.8125 -5.265625 -6.851562 -3.578125 -7.75 C -2.085938 -8.539062 -0.847656 -9.484375 0.140625 -10.578125 C 1.140625 -11.671875 1.988281 -13.410156 2.6875 -15.796875 L 25.34375 -90.1875 C 25.632812 -91.082031 25.78125 -91.828125 25.78125 -92.421875 C 25.78125 -93.515625 25.503906 -94.40625 24.953125 -95.09375 C 24.410156 -95.789062 23.695312 -96.488281 22.8125 -97.1875 C 21.8125 -97.976562 21.085938 -98.671875 20.640625 -99.265625 C 20.191406 -99.867188 20.117188 -100.664062 20.421875 -101.65625 C 21.015625 -103.945312 24.144531 -105.9375 29.8125 -107.625 C 35.476562 -109.3125 41.390625 -110.15625 47.546875 -110.15625 C 53.316406 -110.15625 57.566406 -109.0625 60.296875 -106.875 C 63.023438 -104.6875 64.390625 -101.707031 64.390625 -97.9375 C 64.390625 -95.75 64.039062 -93.613281 63.34375 -91.53125 L 55.296875 -65.296875 C 59.171875 -70.359375 63.269531 -73.882812 67.59375 -75.875 C 71.914062 -77.863281 76.613281 -78.859375 81.6875 -78.859375 C 87.75 -78.859375 92.640625 -77.019531 96.359375 -73.34375 C 100.085938 -69.664062 101.953125 -64.894531 101.953125 -59.03125 C 101.953125 -55.945312 101.457031 -52.914062 100.46875 -49.9375 Z M 91.375 -20.578125 "/></g></g></g><g fill="#ffeedc" fill-opacity="1"><g transform="translate(368.00356, 332.073406)"><g><path d="M 53.21875 -78.859375 C 64.644531 -78.859375 73.785156 -76.742188 80.640625 -72.515625 C 87.492188 -68.296875 90.921875 -61.863281 90.921875 -53.21875 C 90.921875 -49.9375 90.328125 -46.207031 89.140625 -42.03125 L 83.03125 -21.46875 C 82.925781 -21.070312 82.875 -20.570312 82.875 -19.96875 C 82.875 -18.382812 83.519531 -17.59375 84.8125 -17.59375 C 86.007812 -17.59375 87.03125 -18.113281 87.875 -19.15625 C 88.71875 -20.195312 89.289062 -20.71875 89.59375 -20.71875 C 90.082031 -20.71875 90.5 -20.367188 90.84375 -19.671875 C 91.195312 -18.972656 91.375 -18.179688 91.375 -17.296875 C 91.476562 -14.609375 90.457031 -11.875 88.3125 -9.09375 C 86.175781 -6.3125 83.316406 -4.023438 79.734375 -2.234375 C 76.160156 -0.441406 72.238281 0.453125 67.96875 0.453125 C 62.800781 0.453125 58.378906 -0.488281 54.703125 -2.375 C 51.023438 -4.269531 48.492188 -7.054688 47.109375 -10.734375 C 44.117188 -7.148438 40.585938 -4.390625 36.515625 -2.453125 C 32.441406 -0.515625 28.070312 0.453125 23.40625 0.453125 C 18.132812 0.453125 13.707031 -0.566406 10.125 -2.609375 C 6.550781 -4.648438 3.894531 -7.285156 2.15625 -10.515625 C 0.414062 -13.742188 -0.453125 -17.144531 -0.453125 -20.71875 C -0.453125 -22.3125 -0.300781 -23.851562 0 -25.34375 C 1.59375 -32.195312 5.046875 -37.363281 10.359375 -40.84375 C 15.671875 -44.320312 22.003906 -46.0625 29.359375 -46.0625 C 37.609375 -46.0625 45.707031 -44.769531 53.65625 -42.1875 L 57.390625 -52.015625 C 58.679688 -56.191406 59.328125 -59.425781 59.328125 -61.71875 C 59.222656 -64.101562 58.425781 -65.890625 56.9375 -67.078125 C 55.445312 -68.265625 53.160156 -68.859375 50.078125 -68.859375 C 50.679688 -67.273438 50.984375 -65.640625 50.984375 -63.953125 C 50.984375 -60.273438 49.585938 -57.09375 46.796875 -54.40625 C 44.015625 -51.726562 40.039062 -50.390625 34.875 -50.390625 C 30.007812 -50.390625 26.207031 -51.457031 23.46875 -53.59375 C 20.738281 -55.726562 19.375 -58.382812 19.375 -61.5625 C 19.375 -66.53125 22.15625 -70.65625 27.71875 -73.9375 C 33.289062 -77.21875 41.789062 -78.859375 53.21875 -78.859375 Z M 44.875 -33.6875 C 42.082031 -33.6875 39.816406 -32.617188 38.078125 -30.484375 C 36.347656 -28.347656 35.484375 -26.035156 35.484375 -23.546875 C 35.484375 -21.960938 35.851562 -20.671875 36.59375 -19.671875 C 37.34375 -18.679688 38.410156 -18.1875 39.796875 -18.1875 C 41.085938 -18.1875 42.503906 -18.707031 44.046875 -19.75 C 45.585938 -20.789062 46.707031 -22.359375 47.40625 -24.453125 L 50.53125 -33.234375 C 48.84375 -33.535156 46.957031 -33.6875 44.875 -33.6875 Z M 44.875 -33.6875 "/></g></g></g><g fill="#ffeedc" fill-opacity="1"><g transform="translate(465.482608, 332.073406)"><g><path d="M 73.1875 -78.859375 C 78.75 -78.859375 83.195312 -77.164062 86.53125 -73.78125 C 89.863281 -70.40625 91.53125 -66.234375 91.53125 -61.265625 C 91.53125 -59.378906 91.328125 -57.640625 90.921875 -56.046875 C 89.929688 -51.972656 88.046875 -48.84375 85.265625 -46.65625 C 82.484375 -44.46875 79.15625 -43.375 75.28125 -43.375 C 71.5 -43.375 68.640625 -44.269531 66.703125 -46.0625 C 64.765625 -47.851562 63.050781 -50.238281 61.5625 -53.21875 C 60.769531 -54.90625 60.023438 -56.144531 59.328125 -56.9375 C 58.628906 -57.738281 57.832031 -58.140625 56.9375 -58.140625 C 55.945312 -58.140625 55.078125 -57.738281 54.328125 -56.9375 C 53.585938 -56.144531 52.921875 -54.753906 52.328125 -52.765625 L 40.84375 -15.5 C 40.644531 -15 40.546875 -14.253906 40.546875 -13.265625 C 40.546875 -11.972656 40.914062 -10.90625 41.65625 -10.0625 C 42.40625 -9.21875 43.425781 -8.398438 44.71875 -7.609375 C 45.90625 -6.804688 46.695312 -6.15625 47.09375 -5.65625 C 47.5 -5.164062 47.648438 -4.519531 47.546875 -3.71875 C 47.347656 -2.425781 46.628906 -1.484375 45.390625 -0.890625 C 44.148438 -0.296875 42.035156 0 39.046875 0 L 0.890625 0 C -1.691406 0 -3.550781 -0.421875 -4.6875 -1.265625 C -5.832031 -2.109375 -6.257812 -3.226562 -5.96875 -4.625 C -5.5625 -5.8125 -4.515625 -6.851562 -2.828125 -7.75 C -1.335938 -8.539062 -0.0976562 -9.484375 0.890625 -10.578125 C 1.890625 -11.671875 2.734375 -13.410156 3.421875 -15.796875 L 16.6875 -58.875 C 16.894531 -59.375 17 -60.070312 17 -60.96875 C 17 -62.0625 16.773438 -62.90625 16.328125 -63.5 C 15.878906 -64.09375 15.15625 -64.835938 14.15625 -65.734375 C 13.164062 -66.523438 12.472656 -67.21875 12.078125 -67.8125 C 11.679688 -68.414062 11.628906 -69.210938 11.921875 -70.203125 C 12.515625 -72.492188 15.644531 -74.507812 21.3125 -76.25 C 26.976562 -77.988281 32.890625 -78.859375 39.046875 -78.859375 C 43.128906 -78.859375 46.507812 -77.9375 49.1875 -76.09375 C 51.875 -74.257812 53.613281 -71.648438 54.40625 -68.265625 C 59.175781 -75.328125 65.4375 -78.859375 73.1875 -78.859375 Z M 73.1875 -78.859375 "/></g></g></g><g fill="#ffeedc" fill-opacity="1"><g transform="translate(551.782877, 332.073406)"><g><path d="M 50.53125 -79.59375 C 63.15625 -79.59375 72.296875 -77.582031 77.953125 -73.5625 C 83.617188 -69.539062 86.453125 -64.398438 86.453125 -58.140625 C 86.453125 -56.242188 86.253906 -54.503906 85.859375 -52.921875 C 84.367188 -46.359375 80.21875 -41.660156 73.40625 -38.828125 C 66.601562 -35.992188 58.582031 -34.578125 49.34375 -34.578125 C 44.664062 -34.578125 40.289062 -34.878906 36.21875 -35.484375 C 36.125 -30.304688 37.515625 -26.675781 40.390625 -24.59375 C 43.273438 -22.507812 47.300781 -21.46875 52.46875 -21.46875 C 54.851562 -21.46875 57.140625 -21.738281 59.328125 -22.28125 C 61.515625 -22.832031 64.296875 -23.65625 67.671875 -24.75 C 70.453125 -25.738281 72.34375 -26.234375 73.34375 -26.234375 C 74.4375 -26.234375 74.984375 -25.585938 74.984375 -24.296875 C 75.078125 -20.816406 73.78125 -17.164062 71.09375 -13.34375 C 68.414062 -9.519531 64.441406 -6.265625 59.171875 -3.578125 C 53.910156 -0.890625 47.550781 0.453125 40.09375 0.453125 C 29.0625 0.453125 20.019531 -2.328125 12.96875 -7.890625 C 5.914062 -13.460938 2.390625 -21.566406 2.390625 -32.203125 C 2.390625 -35.179688 2.785156 -38.65625 3.578125 -42.625 C 6.054688 -54.851562 11.492188 -64.070312 19.890625 -70.28125 C 28.296875 -76.488281 38.507812 -79.59375 50.53125 -79.59375 Z M 37.265625 -44.421875 C 37.660156 -44.316406 38.207031 -44.265625 38.90625 -44.265625 C 43.082031 -44.265625 46.257812 -46.203125 48.4375 -50.078125 C 50.625 -53.953125 51.671875 -58.273438 51.578125 -63.046875 C 51.472656 -65.835938 50.675781 -67.234375 49.1875 -67.234375 C 48.09375 -67.234375 46.800781 -66.363281 45.3125 -64.625 C 43.820312 -62.882812 42.351562 -60.273438 40.90625 -56.796875 C 39.46875 -53.316406 38.253906 -49.191406 37.265625 -44.421875 Z M 37.265625 -44.421875 "/></g></g></g><g fill="#ffeedc" fill-opacity="1"><g transform="translate(635.25114, 332.073406)"><g><path d="M 39.203125 -78.859375 C 44.972656 -78.859375 49.195312 -77.765625 51.875 -75.578125 C 54.5625 -73.390625 55.90625 -70.40625 55.90625 -66.625 C 55.90625 -64.34375 55.554688 -62.160156 54.859375 -60.078125 L 41.140625 -15.5 C 40.847656 -14.3125 40.703125 -13.269531 40.703125 -12.375 C 40.703125 -11.082031 40.945312 -10.0625 41.4375 -9.3125 C 41.9375 -8.570312 42.632812 -7.851562 43.53125 -7.15625 C 44.226562 -6.457031 44.722656 -5.882812 45.015625 -5.4375 C 45.316406 -4.988281 45.367188 -4.414062 45.171875 -3.71875 C 44.671875 -2.425781 43.675781 -1.484375 42.1875 -0.890625 C 40.695312 -0.296875 38.410156 0 35.328125 0 L 1.34375 0 C -1.238281 0 -3.125 -0.421875 -4.3125 -1.265625 C -5.507812 -2.109375 -5.910156 -3.226562 -5.515625 -4.625 C -5.109375 -5.8125 -4.0625 -6.851562 -2.375 -7.75 C -0.882812 -8.539062 0.351562 -9.484375 1.34375 -10.578125 C 2.34375 -11.671875 3.1875 -13.410156 3.875 -15.796875 L 16.84375 -58.875 C 17.144531 -59.769531 17.296875 -60.515625 17.296875 -61.109375 C 17.296875 -62.203125 17.046875 -63.070312 16.546875 -63.71875 C 16.054688 -64.363281 15.3125 -65.035156 14.3125 -65.734375 C 13.320312 -66.523438 12.625 -67.21875 12.21875 -67.8125 C 11.820312 -68.414062 11.773438 -69.210938 12.078125 -70.203125 C 12.671875 -72.492188 15.800781 -74.507812 21.46875 -76.25 C 27.132812 -77.988281 33.046875 -78.859375 39.203125 -78.859375 Z M 49.1875 -111.796875 C 53.070312 -111.796875 56.304688 -110.523438 58.890625 -107.984375 C 61.472656 -105.453125 62.765625 -102.347656 62.765625 -98.671875 C 62.765625 -96.085938 62.09375 -93.550781 60.75 -91.0625 C 59.40625 -88.582031 57.515625 -86.570312 55.078125 -85.03125 C 52.648438 -83.5 49.941406 -82.734375 46.953125 -82.734375 C 43.179688 -82.734375 40.023438 -84 37.484375 -86.53125 C 34.953125 -89.0625 33.640625 -92.21875 33.546875 -96 C 33.546875 -98.476562 34.191406 -100.9375 35.484375 -103.375 C 36.773438 -105.8125 38.613281 -107.820312 41 -109.40625 C 43.382812 -111 46.113281 -111.796875 49.1875 -111.796875 Z M 49.1875 -111.796875 "/></g></g></g><g fill="#ffeedc" fill-opacity="1"><g transform="translate(689.803675, 332.073406)"><g><path d="M 60.8125 -110.15625 C 71.445312 -110.15625 79.421875 -108.539062 84.734375 -105.3125 C 90.054688 -102.082031 92.71875 -98.132812 92.71875 -93.46875 C 92.71875 -89.6875 91.148438 -86.773438 88.015625 -84.734375 C 84.890625 -82.703125 80.789062 -81.6875 75.71875 -81.6875 C 71.050781 -81.6875 67.425781 -82.828125 64.84375 -85.109375 C 62.257812 -87.398438 60.96875 -90.234375 60.96875 -93.609375 C 60.96875 -95.691406 61.613281 -97.878906 62.90625 -100.171875 C 59.925781 -100.171875 57.441406 -99.445312 55.453125 -98 C 53.460938 -96.5625 51.921875 -94.101562 50.828125 -90.625 C 50.234375 -88.4375 49.9375 -86.398438 49.9375 -84.515625 C 49.9375 -82.128906 50.359375 -80.265625 51.203125 -78.921875 C 52.046875 -77.585938 53.265625 -76.921875 54.859375 -76.921875 L 63.65625 -76.921875 C 68.820312 -76.921875 71.40625 -75.328125 71.40625 -72.140625 C 71.40625 -71.742188 71.304688 -71.148438 71.109375 -70.359375 C 70.503906 -68.171875 69.28125 -66.53125 67.4375 -65.4375 C 65.601562 -64.34375 62.847656 -63.796875 59.171875 -63.796875 L 54.703125 -63.796875 L 39.953125 -15.5 C 39.648438 -14.3125 39.5 -13.269531 39.5 -12.375 C 39.5 -11.082031 39.742188 -10.0625 40.234375 -9.3125 C 40.734375 -8.570312 41.429688 -7.851562 42.328125 -7.15625 C 43.023438 -6.457031 43.519531 -5.882812 43.8125 -5.4375 C 44.113281 -4.988281 44.164062 -4.414062 43.96875 -3.71875 C 43.476562 -2.425781 42.484375 -1.484375 40.984375 -0.890625 C 39.492188 -0.296875 37.210938 0 34.140625 0 L 0.15625 0 C -2.425781 0 -4.3125 -0.421875 -5.5 -1.265625 C -6.695312 -2.109375 -7.097656 -3.226562 -6.703125 -4.625 C -6.304688 -5.8125 -5.265625 -6.851562 -3.578125 -7.75 C -2.085938 -8.539062 -0.847656 -9.484375 0.140625 -10.578125 C 1.140625 -11.671875 1.988281 -13.410156 2.6875 -15.796875 L 14.3125 -53.953125 C 14.8125 -55.453125 15.0625 -56.992188 15.0625 -58.578125 C 15.0625 -60.566406 14.632812 -62.128906 13.78125 -63.265625 C 12.9375 -64.410156 11.671875 -65.679688 9.984375 -67.078125 C 8.890625 -67.972656 8.066406 -68.742188 7.515625 -69.390625 C 6.972656 -70.035156 6.703125 -70.804688 6.703125 -71.703125 C 6.609375 -73.585938 7.28125 -74.925781 8.71875 -75.71875 C 10.15625 -76.519531 12.914062 -76.921875 17 -76.921875 L 20.71875 -76.921875 C 20.019531 -79.398438 19.671875 -81.882812 19.671875 -84.375 C 19.671875 -86.851562 20.117188 -89.4375 21.015625 -92.125 C 22.898438 -97.1875 26.945312 -101.457031 33.15625 -104.9375 C 39.375 -108.414062 48.59375 -110.15625 60.8125 -110.15625 Z M 60.8125 -110.15625 "/></g></g></g><g fill="#ffeedc" fill-opacity="1"><g transform="translate(757.770936, 332.073406)"><g><path d="M 79 -78.859375 C 83.375 -78.859375 86.878906 -77.09375 89.515625 -73.5625 C 92.148438 -70.03125 93.46875 -65.234375 93.46875 -59.171875 C 93.46875 -53.910156 92.519531 -48.25 90.625 -42.1875 C 86.945312 -29.957031 81.054688 -18.425781 72.953125 -7.59375 C 64.859375 3.226562 55.566406 11.921875 45.078125 18.484375 C 34.597656 25.046875 24.144531 28.328125 13.71875 28.328125 C 8.550781 28.328125 4.101562 27.429688 0.375 25.640625 C -3.351562 23.847656 -6.1875 21.460938 -8.125 18.484375 C -10.0625 15.503906 -11.03125 12.320312 -11.03125 8.9375 C -11.03125 7.445312 -10.78125 5.8125 -10.28125 4.03125 C -9.382812 1.238281 -7.894531 -0.898438 -5.8125 -2.390625 C -3.726562 -3.878906 -1.242188 -4.625 1.640625 -4.625 C 6.210938 -4.625 9.960938 -3.0625 12.890625 0.0625 C 15.828125 3.195312 17.691406 7.5 18.484375 12.96875 C 24.847656 12.664062 30.710938 9.929688 36.078125 4.765625 C 31.003906 3.867188 27.25 2.15625 24.8125 -0.375 C 22.382812 -2.90625 20.722656 -6.851562 19.828125 -12.21875 L 13.859375 -48.75 C 13.566406 -50.632812 13.144531 -51.945312 12.59375 -52.6875 C 12.050781 -53.4375 11.332031 -53.8125 10.4375 -53.8125 C 9.738281 -53.8125 8.914062 -53.460938 7.96875 -52.765625 C 7.03125 -52.066406 6.363281 -51.71875 5.96875 -51.71875 C 5.164062 -51.71875 4.765625 -52.566406 4.765625 -54.265625 C 4.765625 -55.648438 5.015625 -57.140625 5.515625 -58.734375 C 7.304688 -64.398438 10.632812 -69.191406 15.5 -73.109375 C 20.375 -77.035156 26.039062 -79 32.5 -79 C 38.851562 -79 43.546875 -77.109375 46.578125 -73.328125 C 49.609375 -69.554688 51.570312 -63.742188 52.46875 -55.890625 L 56.9375 -23.109375 C 57.238281 -20.617188 58.132812 -19.375 59.625 -19.375 C 61.414062 -19.375 63.503906 -20.988281 65.890625 -24.21875 C 68.273438 -27.445312 70.609375 -32.046875 72.890625 -38.015625 C 69.910156 -40.691406 67.625 -43.769531 66.03125 -47.25 C 64.445312 -50.726562 63.65625 -54.457031 63.65625 -58.4375 C 63.65625 -61.507812 64.050781 -64.289062 64.84375 -66.78125 C 66.03125 -70.757812 67.890625 -73.765625 70.421875 -75.796875 C 72.960938 -77.835938 75.820312 -78.859375 79 -78.859375 Z M 79 -78.859375 "/></g></g></g><g fill="#ffeedc" fill-opacity="1"><g transform="translate(850.206893, 332.073406)"><g/></g></g></svg>