<svg xmlns="http://www.w3.org/2000/svg" xmlns:xlink="http://www.w3.org/1999/xlink" width="1366" zoomAndPan="magnify" viewBox="0 0 1024.5 576" height="768" preserveAspectRatio="xMidYMid meet" version="1.0"><defs><g/><clipPath id="07830cb377"><path d="M 462.574219 211.207031 L 954 211.207031 L 954 401.125 L 462.574219 401.125 Z M 462.574219 211.207031 " clip-rule="nonzero"/></clipPath><clipPath id="e33359dd81"><path d="M 462.574219 227 L 938 227 L 938 386 L 462.574219 386 Z M 462.574219 227 " clip-rule="nonzero"/></clipPath><clipPath id="5c571397f7"><path d="M 462.574219 258 L 938 258 L 938 386 L 462.574219 386 Z M 462.574219 258 " clip-rule="nonzero"/></clipPath><clipPath id="ebab388606"><path d="M 462.574219 306 L 938 306 L 938 386 L 462.574219 386 Z M 462.574219 306 " clip-rule="nonzero"/></clipPath><clipPath id="3e144289ba"><path d="M 462.574219 227 L 510 227 L 510 291 L 462.574219 291 Z M 462.574219 227 " clip-rule="nonzero"/></clipPath><clipPath id="18c1b4c93f"><path d="M 70 211.207031 L 545.574219 211.207031 L 545.574219 401.125 L 70 401.125 Z M 70 211.207031 " clip-rule="nonzero"/></clipPath><clipPath id="74bf4b2286"><path d="M 85 227 L 545.574219 227 L 545.574219 387 L 85 387 Z M 85 227 " clip-rule="nonzero"/></clipPath><clipPath id="6838734013"><path d="M 85 258 L 545.574219 258 L 545.574219 387 L 85 387 Z M 85 258 " clip-rule="nonzero"/></clipPath><clipPath id="1c54a6f27a"><path d="M 85 306 L 545.574219 306 L 545.574219 387 L 85 387 Z M 85 306 " clip-rule="nonzero"/></clipPath><clipPath id="d062f35d7a"><path d="M 731.328125 248.179688 L 853.519531 248.179688 L 853.519531 337.386719 L 731.328125 337.386719 Z M 731.328125 248.179688 " clip-rule="nonzero"/></clipPath><clipPath id="65bd1bb109"><path d="M 731.328125 248.179688 L 821 248.179688 L 821 337.386719 L 731.328125 337.386719 Z M 731.328125 248.179688 " clip-rule="nonzero"/></clipPath><clipPath id="863dfc65d3"><path d="M 845 288 L 853.519531 288 L 853.519531 297 L 845 297 Z M 845 288 " clip-rule="nonzero"/></clipPath></defs><g clip-path="url(#07830cb377)"><path fill="#000000" d="M 874.445312 401.867188 L 890.332031 401.867188 L 890.332031 385.980469 L 922.105469 385.980469 L 922.105469 370.09375 L 937.992188 370.09375 L 937.992188 338.320312 L 953.878906 338.320312 L 953.878906 274.773438 L 937.992188 274.773438 L 937.992188 243 L 922.105469 243 L 922.105469 227.113281 L 890.332031 227.113281 L 890.332031 211.226562 L 461.390625 211.226562 L 461.390625 227.113281 L 429.617188 227.113281 L 429.617188 243 L 413.730469 243 L 413.730469 274.773438 L 397.84375 274.773438 L 397.84375 338.320312 L 413.730469 338.320312 L 413.730469 370.09375 L 429.617188 370.09375 L 429.617188 385.980469 L 461.390625 385.980469 L 461.390625 401.867188 Z M 874.445312 401.867188 " fill-opacity="1" fill-rule="evenodd"/></g><g clip-path="url(#e33359dd81)"><path fill="#6ab528" d="M 874.445312 385.980469 L 890.332031 385.980469 L 890.332031 370.09375 L 922.105469 370.09375 L 922.105469 338.320312 L 937.992188 338.320312 L 937.992188 274.773438 L 922.105469 274.773438 L 922.105469 243 L 890.332031 243 L 890.332031 227.113281 L 461.390625 227.113281 L 461.390625 243 L 429.617188 243 L 429.617188 274.773438 L 413.730469 274.773438 L 413.730469 338.320312 L 429.617188 338.320312 L 429.617188 370.09375 L 461.390625 370.09375 L 461.390625 385.980469 Z M 874.445312 385.980469 " fill-opacity="1" fill-rule="evenodd"/></g><g clip-path="url(#5c571397f7)"><path fill="#6ab528" d="M 874.445312 385.980469 L 890.332031 385.980469 L 890.332031 370.09375 L 922.105469 370.09375 L 922.105469 338.320312 L 937.992188 338.320312 L 937.992188 290.660156 L 922.105469 290.660156 L 922.105469 274.773438 L 906.21875 274.773438 L 906.21875 258.886719 L 445.503906 258.886719 L 445.503906 274.777344 L 429.617188 274.777344 L 429.617188 290.664062 L 413.730469 290.664062 L 413.730469 338.324219 L 429.617188 338.324219 L 429.617188 370.097656 L 461.390625 370.097656 L 461.390625 385.984375 L 874.445312 385.984375 Z M 874.445312 385.980469 " fill-opacity="1" fill-rule="evenodd"/></g><g clip-path="url(#ebab388606)"><path fill="#b4f07f" d="M 874.445312 385.980469 L 890.332031 385.980469 L 890.332031 370.09375 L 922.105469 370.09375 L 922.105469 338.320312 L 937.992188 338.320312 L 937.992188 306.546875 L 922.105469 306.546875 L 922.105469 338.320312 L 906.21875 338.320312 L 906.21875 354.207031 L 874.445312 354.207031 L 874.445312 370.09375 L 477.277344 370.09375 L 477.277344 354.207031 L 445.503906 354.207031 L 445.503906 338.320312 L 429.617188 338.320312 L 429.617188 306.546875 L 413.730469 306.546875 L 413.730469 338.320312 L 429.617188 338.320312 L 429.617188 370.09375 L 461.390625 370.09375 L 461.390625 385.980469 Z M 874.445312 385.980469 " fill-opacity="1" fill-rule="evenodd"/></g><g clip-path="url(#3e144289ba)"><path fill="#6ab528" d="M 413.730469 290.660156 L 429.617188 290.660156 L 429.617188 274.773438 L 445.503906 274.773438 L 445.503906 258.886719 L 477.277344 258.886719 L 477.277344 243 L 509.050781 243 L 509.050781 227.113281 L 461.390625 227.113281 L 461.390625 243 L 429.617188 243 L 429.617188 274.773438 L 413.730469 274.773438 Z M 413.730469 290.660156 " fill-opacity="1" fill-rule="evenodd"/></g><g clip-path="url(#18c1b4c93f)"><path fill="#000000" d="M 546.988281 401.984375 L 562.882812 401.984375 L 562.882812 386.085938 L 594.675781 386.085938 L 594.675781 370.191406 L 610.574219 370.191406 L 610.574219 338.398438 L 626.46875 338.398438 L 626.46875 274.8125 L 610.574219 274.8125 L 610.574219 243.019531 L 594.675781 243.019531 L 594.675781 227.125 L 562.882812 227.125 L 562.882812 211.226562 L 133.683594 211.226562 L 133.683594 227.125 L 101.890625 227.125 L 101.890625 243.019531 L 85.992188 243.019531 L 85.992188 274.8125 L 70.097656 274.8125 L 70.097656 338.398438 L 85.992188 338.398438 L 85.992188 370.191406 L 101.890625 370.191406 L 101.890625 386.085938 L 133.683594 386.085938 L 133.683594 401.984375 Z M 546.988281 401.984375 " fill-opacity="1" fill-rule="evenodd"/></g><g clip-path="url(#74bf4b2286)"><path fill="#6ab528" d="M 546.988281 386.085938 L 562.882812 386.085938 L 562.882812 370.191406 L 594.675781 370.191406 L 594.675781 338.398438 L 610.574219 338.398438 L 610.574219 274.8125 L 594.675781 274.8125 L 594.675781 243.019531 L 562.882812 243.019531 L 562.882812 227.125 L 133.683594 227.125 L 133.683594 243.019531 L 101.890625 243.019531 L 101.890625 274.8125 L 85.992188 274.8125 L 85.992188 338.398438 L 101.890625 338.398438 L 101.890625 370.191406 L 133.683594 370.191406 L 133.683594 386.085938 Z M 546.988281 386.085938 " fill-opacity="1" fill-rule="evenodd"/></g><g clip-path="url(#6838734013)"><path fill="#6ab528" d="M 546.988281 386.085938 L 562.882812 386.085938 L 562.882812 370.191406 L 594.675781 370.191406 L 594.675781 338.398438 L 610.574219 338.398438 L 610.574219 290.710938 L 594.675781 290.710938 L 594.675781 274.8125 L 578.78125 274.8125 L 578.78125 258.917969 L 117.785156 258.917969 L 117.785156 274.816406 L 101.890625 274.816406 L 101.890625 290.710938 L 85.992188 290.710938 L 85.992188 338.398438 L 101.890625 338.398438 L 101.890625 370.191406 L 133.683594 370.191406 L 133.683594 386.089844 L 546.988281 386.089844 Z M 546.988281 386.085938 " fill-opacity="1" fill-rule="evenodd"/></g><g clip-path="url(#1c54a6f27a)"><path fill="#b4f07f" d="M 546.988281 386.085938 L 562.882812 386.085938 L 562.882812 370.191406 L 594.675781 370.191406 L 594.675781 338.398438 L 610.574219 338.398438 L 610.574219 306.605469 L 594.675781 306.605469 L 594.675781 338.398438 L 578.78125 338.398438 L 578.78125 354.292969 L 546.988281 354.292969 L 546.988281 370.191406 L 149.578125 370.191406 L 149.578125 354.292969 L 117.785156 354.292969 L 117.785156 338.398438 L 101.890625 338.398438 L 101.890625 306.605469 L 85.992188 306.605469 L 85.992188 338.398438 L 101.890625 338.398438 L 101.890625 370.191406 L 133.683594 370.191406 L 133.683594 386.085938 Z M 546.988281 386.085938 " fill-opacity="1" fill-rule="evenodd"/></g><path fill="#6ab528" d="M 85.992188 290.710938 L 101.890625 290.710938 L 101.890625 274.8125 L 117.785156 274.8125 L 117.785156 258.917969 L 149.578125 258.917969 L 149.578125 243.019531 L 181.371094 243.019531 L 181.371094 227.125 L 133.683594 227.125 L 133.683594 243.019531 L 101.890625 243.019531 L 101.890625 274.8125 L 85.992188 274.8125 Z M 85.992188 290.710938 " fill-opacity="1" fill-rule="evenodd"/><g clip-path="url(#d062f35d7a)"><path fill="#000000" d="M 845.375 288.734375 L 845.375 280.628906 L 837.21875 280.628906 L 837.21875 272.519531 L 829.078125 272.519531 L 829.078125 264.417969 L 820.933594 264.417969 L 820.933594 256.3125 L 812.785156 256.3125 L 812.785156 248.210938 L 804.644531 248.210938 L 804.644531 280.628906 L 731.328125 280.628906 L 731.328125 304.941406 L 804.644531 304.941406 L 804.644531 337.355469 L 812.785156 337.355469 L 812.785156 329.257812 L 820.933594 329.257812 L 820.933594 321.144531 L 829.078125 321.144531 L 829.078125 313.046875 L 837.21875 313.046875 L 837.21875 304.941406 L 845.375 304.941406 L 845.375 296.835938 L 853.515625 296.835938 L 853.515625 288.734375 Z M 845.375 288.734375 " fill-opacity="1" fill-rule="nonzero"/></g><path fill="#ffffff" d="M 837.21875 288.734375 L 837.21875 280.628906 L 829.078125 280.628906 L 829.078125 272.519531 L 820.933594 272.519531 L 820.933594 264.417969 L 812.785156 264.417969 L 812.785156 288.734375 L 739.480469 288.734375 L 739.480469 296.835938 L 812.785156 296.835938 L 812.785156 321.144531 L 820.933594 321.144531 L 820.933594 313.046875 L 829.078125 313.046875 L 829.078125 304.941406 L 837.21875 304.941406 L 837.21875 296.835938 L 845.375 296.835938 L 845.375 288.734375 Z M 837.21875 288.734375 " fill-opacity="1" fill-rule="nonzero"/><g clip-path="url(#65bd1bb109)"><path fill="#000000" d="M 812.785156 313.046875 L 812.785156 296.835938 L 739.480469 296.835938 L 739.480469 288.734375 L 812.785156 288.734375 L 812.785156 264.417969 L 820.933594 264.417969 L 820.933594 256.3125 L 812.785156 256.3125 L 812.785156 248.210938 L 804.644531 248.210938 L 804.644531 280.628906 L 731.328125 280.628906 L 731.328125 304.941406 L 804.644531 304.941406 L 804.644531 337.355469 L 812.785156 337.355469 L 812.785156 329.257812 L 820.933594 329.257812 L 820.933594 321.144531 L 812.785156 321.144531 Z M 812.785156 313.046875 " fill-opacity="1" fill-rule="nonzero"/></g><path fill="#000000" d="M 820.933594 321.144531 L 829.078125 321.144531 L 829.078125 313.046875 L 820.933594 313.046875 Z M 820.933594 321.144531 " fill-opacity="1" fill-rule="nonzero"/><path fill="#000000" d="M 829.078125 313.046875 L 837.21875 313.046875 L 837.21875 304.941406 L 829.078125 304.941406 Z M 829.078125 313.046875 " fill-opacity="1" fill-rule="nonzero"/><path fill="#000000" d="M 837.21875 304.941406 L 845.375 304.941406 L 845.375 296.835938 L 837.21875 296.835938 Z M 837.21875 304.941406 " fill-opacity="1" fill-rule="nonzero"/><g clip-path="url(#863dfc65d3)"><path fill="#000000" d="M 845.375 288.734375 L 845.375 296.835938 L 853.515625 296.835938 L 853.515625 288.734375 Z M 845.375 288.734375 " fill-opacity="1" fill-rule="nonzero"/></g><path fill="#000000" d="M 845.375 288.734375 L 845.375 280.628906 L 837.21875 280.628906 L 837.21875 288.734375 Z M 845.375 288.734375 " fill-opacity="1" fill-rule="nonzero"/><path fill="#000000" d="M 837.21875 280.628906 L 837.21875 272.519531 L 829.078125 272.519531 L 829.078125 280.628906 Z M 837.21875 280.628906 " fill-opacity="1" fill-rule="nonzero"/><path fill="#000000" d="M 829.078125 272.519531 L 829.078125 264.417969 L 820.933594 264.417969 L 820.933594 272.519531 Z M 829.078125 272.519531 " fill-opacity="1" fill-rule="nonzero"/><path stroke-linecap="butt" transform="matrix(1.456246, 0, 0, 1.456246, 214.377714, 252.36246)" fill="none" stroke-linejoin="miter" d="M 5.802875 48.198131 L 5.802875 42.396075 L 0.000819036 42.396075 L 0.000819036 36.591337 L 11.60493 36.591337 L 11.60493 42.396075 L 29.01378 42.396075 L 29.01378 30.789281 L 5.802875 30.789281 L 5.802875 24.987226 L 0.000819036 24.987226 L 0.000819036 13.383114 L 5.802875 13.383114 L 5.802875 7.581059 L 34.815836 7.581059 L 34.815836 13.383114 L 40.617892 13.383114 L 40.617892 19.18517 L 29.01378 19.18517 L 29.01378 13.383114 L 11.60493 13.383114 L 11.60493 24.987226 L 34.815836 24.987226 L 34.815836 30.789281 L 40.617892 30.789281 L 40.617892 42.396075 L 34.815836 42.396075 L 34.815836 48.198131 Z M 63.812702 13.383114 L 63.812702 7.581059 L 75.419496 7.581059 L 75.419496 13.383114 Z M 52.208591 48.198131 L 52.208591 42.396075 L 63.812702 42.396075 L 63.812702 24.987226 L 58.010647 24.987226 L 58.010647 19.18517 L 75.419496 19.18517 L 75.419496 42.396075 L 87.023608 42.396075 L 87.023608 48.198131 Z M 98.614307 54.000187 L 98.614307 48.198131 L 121.825212 48.198131 L 121.825212 42.396075 L 98.614307 42.396075 L 98.614307 36.591337 L 92.812251 36.591337 L 92.812251 24.987226 L 98.614307 24.987226 L 98.614307 19.18517 L 133.429324 19.18517 L 133.429324 48.198131 L 127.627268 48.198131 L 127.627268 54.000187 Z M 104.416363 36.591337 L 121.825212 36.591337 L 121.825212 24.987226 L 104.416363 24.987226 Z M 139.217967 48.198131 L 139.217967 19.18517 L 174.032984 19.18517 L 174.032984 24.987226 L 179.83504 24.987226 L 179.83504 48.198131 L 168.230928 48.198131 L 168.230928 24.987226 L 150.824761 24.987226 L 150.824761 48.198131 Z M 249.438249 13.383114 L 249.438249 7.581059 L 261.045043 7.581059 L 261.045043 13.383114 Z M 237.834138 48.198131 L 237.834138 42.396075 L 249.438249 42.396075 L 249.438249 24.987226 L 243.636194 24.987226 L 243.636194 19.18517 L 261.045043 19.18517 L 261.045043 42.396075 L 272.649155 42.396075 L 272.649155 48.198131 Z M 278.437798 48.198131 L 278.437798 19.18517 L 313.252815 19.18517 L 313.252815 24.987226 L 319.054871 24.987226 L 319.054871 48.198131 L 307.450759 48.198131 L 307.450759 24.987226 L 290.04191 24.987226 L 290.04191 48.198131 Z M 278.437798 48.198131 " stroke="#000000" stroke-width="9.865823" stroke-opacity="1" stroke-miterlimit="4"/><g fill="#ffffff" fill-opacity="1"><g transform="translate(214.377714, 330.999728)"><g><path d="M 8.453125 -8.453125 L 8.453125 -16.90625 L 0 -16.90625 L 0 -25.34375 L 16.90625 -25.34375 L 16.90625 -16.90625 L 42.25 -16.90625 L 42.25 -33.796875 L 8.453125 -33.796875 L 8.453125 -42.25 L 0 -42.25 L 0 -59.140625 L 8.453125 -59.140625 L 8.453125 -67.59375 L 50.703125 -67.59375 L 50.703125 -59.140625 L 59.140625 -59.140625 L 59.140625 -50.703125 L 42.25 -50.703125 L 42.25 -59.140625 L 16.90625 -59.140625 L 16.90625 -42.25 L 50.703125 -42.25 L 50.703125 -33.796875 L 59.140625 -33.796875 L 59.140625 -16.90625 L 50.703125 -16.90625 L 50.703125 -8.453125 Z M 8.453125 -8.453125 "/></g></g></g><g fill="#ffffff" fill-opacity="1"><g transform="translate(281.956638, 330.999728)"><g><path d="M 25.34375 -59.140625 L 25.34375 -67.59375 L 42.25 -67.59375 L 42.25 -59.140625 Z M 8.453125 -8.453125 L 8.453125 -16.90625 L 25.34375 -16.90625 L 25.34375 -42.25 L 16.90625 -42.25 L 16.90625 -50.703125 L 42.25 -50.703125 L 42.25 -16.90625 L 59.140625 -16.90625 L 59.140625 -8.453125 Z M 8.453125 -8.453125 "/></g></g></g><g fill="#ffffff" fill-opacity="1"><g transform="translate(349.535562, 330.999728)"><g><path d="M 8.453125 0 L 8.453125 -8.453125 L 42.25 -8.453125 L 42.25 -16.90625 L 8.453125 -16.90625 L 8.453125 -25.34375 L 0 -25.34375 L 0 -42.25 L 8.453125 -42.25 L 8.453125 -50.703125 L 59.140625 -50.703125 L 59.140625 -8.453125 L 50.703125 -8.453125 L 50.703125 0 Z M 16.90625 -25.34375 L 42.25 -25.34375 L 42.25 -42.25 L 16.90625 -42.25 Z M 16.90625 -25.34375 "/></g></g></g><g fill="#ffffff" fill-opacity="1"><g transform="translate(417.114486, 330.999728)"><g><path d="M 0 -8.453125 L 0 -50.703125 L 50.703125 -50.703125 L 50.703125 -42.25 L 59.140625 -42.25 L 59.140625 -8.453125 L 42.25 -8.453125 L 42.25 -42.25 L 16.90625 -42.25 L 16.90625 -8.453125 Z M 0 -8.453125 "/></g></g></g><g fill="#ffffff" fill-opacity="1"><g transform="translate(552.272335, 330.999728)"><g><path d="M 25.34375 -59.140625 L 25.34375 -67.59375 L 42.25 -67.59375 L 42.25 -59.140625 Z M 8.453125 -8.453125 L 8.453125 -16.90625 L 25.34375 -16.90625 L 25.34375 -42.25 L 16.90625 -42.25 L 16.90625 -50.703125 L 42.25 -50.703125 L 42.25 -16.90625 L 59.140625 -16.90625 L 59.140625 -8.453125 Z M 8.453125 -8.453125 "/></g></g></g><g fill="#ffffff" fill-opacity="1"><g transform="translate(619.851259, 330.999728)"><g><path d="M 0 -8.453125 L 0 -50.703125 L 50.703125 -50.703125 L 50.703125 -42.25 L 59.140625 -42.25 L 59.140625 -8.453125 L 42.25 -8.453125 L 42.25 -42.25 L 16.90625 -42.25 L 16.90625 -8.453125 Z M 0 -8.453125 "/></g></g></g></svg>