<?xml version="1.0" standalone="no"?>
<!DOCTYPE svg PUBLIC "-//W3C//DTD SVG 20010904//EN"
 "http://www.w3.org/TR/2001/REC-SVG-20010904/DTD/svg10.dtd">
<svg version="1.0" xmlns="http://www.w3.org/2000/svg"
 width="311.000000pt" height="313.000000pt" viewBox="0 0 311.000000 313.000000"
 preserveAspectRatio="xMidYMid meet">

<g transform="translate(0.000000,313.000000) scale(0.100000,-0.100000)"
fill="#000000" stroke="none">
<path d="M1074 3066 c-3 -14 -3 -29 0 -35 3 -5 3 -16 0 -25 -5 -13 -23 -16
-100 -16 l-94 0 0 -45 0 -44 -92 -3 -93 -3 -5 -45 -5 -45 -95 -5 -95 -5 -3
-47 -3 -48 -44 0 -44 0 -3 -47 -3 -48 -47 -3 -47 -3 -3 -92 -3 -92 -47 -3 -48
-3 0 -95 0 -94 -45 0 -45 0 -2 -57 c-1 -32 -3 -71 -4 -88 -1 -16 -3 -36 -3
-43 -1 -8 -8 -11 -20 -7 -11 3 -31 3 -45 -1 l-26 -6 0 -469 0 -469 45 0 45 0
0 -42 c0 -24 3 -66 6 -95 l7 -52 43 -7 44 -6 0 -88 c0 -97 2 -100 65 -100 l34
0 3 -93 3 -92 42 -3 c45 -3 48 -7 55 -72 3 -22 9 -25 46 -28 29 -2 42 1 43 10
0 7 2 24 3 38 5 42 -3 50 -50 50 l-43 0 -3 93 -3 92 -47 3 -47 3 -3 92 -3 92
-45 5 c-30 3 -45 10 -46 20 -1 8 -2 50 -3 93 l-1 77 -45 0 -45 0 0 480 0 480
45 0 45 0 0 94 0 95 48 3 47 3 3 92 3 92 47 3 47 3 3 93 3 92 44 0 45 0 0 50
0 49 98 3 97 3 3 48 3 47 95 0 94 0 0 45 0 44 93 3 92 3 3 48 3 47 475 0 474
0 0 -44 c0 -54 5 -56 116 -56 l84 0 0 -45 0 -45 94 0 95 0 3 -47 3 -48 92 -3
92 -3 3 -47 3 -47 47 -3 47 -3 3 -92 3 -92 48 -3 47 -3 0 -95 0 -94 45 0 45 0
0 -89 c0 -54 4 -93 11 -97 6 -3 28 -6 50 -6 l39 1 0 -479 0 -479 -47 -3 -48
-3 -3 -92 -3 -93 -44 0 -45 0 0 -94 0 -95 -47 -3 -48 -3 -3 -92 -3 -92 -47 -3
-47 -3 -3 -47 -3 -47 -92 -3 -92 -3 -5 -45 -5 -45 -92 -3 -93 -3 0 -44 0 -45
-84 0 c-111 0 -116 -2 -116 -56 l0 -44 -473 0 -473 0 -3 42 c-3 59 7 54 -118
57 l-73 1 0 45 0 45 -94 0 -95 0 -3 48 -3 47 -97 3 -98 3 0 -31 c0 -63 11 -70
110 -70 l90 0 0 -44 0 -43 53 -7 c28 -3 71 -6 94 -6 l42 0 3 -42 3 -43 95 -5
95 -5 3 -47 3 -48 470 0 469 0 0 50 0 50 94 0 95 0 3 43 3 42 84 7 c110 9 111
10 111 58 l0 40 79 0 c106 0 111 3 111 56 l0 43 48 3 47 3 3 47 3 47 47 3 47
3 3 93 3 92 32 0 c18 0 37 4 43 8 7 4 15 45 19 92 4 47 12 88 19 92 6 4 25 8
43 8 l32 0 3 93 3 92 45 5 45 5 0 465 0 465 -45 5 -45 5 -3 98 -3 97 -44 0
-44 0 -3 93 -3 92 -45 5 -45 5 -3 93 -3 92 -34 0 c-56 0 -65 8 -65 56 l0 43
-47 3 -48 3 -3 47 -3 47 -92 3 -92 3 -5 45 -5 45 -95 5 -95 5 -3 43 -3 42 -95
0 -94 0 0 50 0 50 -470 0 -470 0 -6 -24z"/>
<path d="M877 2613 c-4 -3 -7 -26 -7 -50 l0 -43 -95 0 c-92 0 -95 -1 -96 -22
-1 -13 -1 -27 0 -32 1 -4 -1 -17 -4 -27 -5 -15 -16 -19 -51 -19 l-44 0 0 -44
0 -45 -47 -3 -48 -3 -3 -47 -3 -48 -44 0 c-54 0 -57 -9 -53 -120 l3 -75 150 0
150 0 3 42 c3 42 3 42 45 45 42 3 42 3 47 48 l5 45 190 5 190 5 3 43 3 42 329
0 329 0 3 -42 3 -43 93 -3 92 -3 0 -43 c0 -31 5 -46 16 -50 9 -3 96 -6 195 -6
l179 0 0 -45 0 -45 150 0 150 0 0 99 0 100 -47 3 c-47 3 -48 4 -49 38 -1 19
-2 41 -3 48 -1 9 -27 12 -96 12 l-95 0 0 45 0 45 -94 0 -95 0 -3 48 -3 47
-142 3 -142 3 -3 47 -3 47 -526 3 c-289 1 -529 -1 -532 -5z"/>
<path d="M1067 1933 c-4 -3 -7 -23 -7 -44 l0 -38 -142 -3 -143 -3 -3 -47 -3
-48 -94 0 -94 0 -3 -47 -3 -48 -89 -1 c-92 -1 -107 -8 -105 -49 2 -40 -2 -44
-44 -47 l-42 -3 -3 -103 -3 -103 148 3 148 3 5 45 5 45 120 2 c66 1 130 2 143
3 19 0 22 5 22 45 l0 45 139 0 c153 0 151 -1 151 66 l0 34 379 0 380 0 3 -47
3 -48 142 -3 142 -3 3 -46 3 -47 90 0 90 -1 5 -45 5 -45 148 -3 148 -3 -3 103
-3 103 -45 5 c-44 5 -45 6 -45 42 -1 20 -4 40 -8 44 -4 4 -46 8 -94 8 l-88 1
-3 47 -3 47 -142 3 -142 3 -5 45 -5 45 -187 3 -187 2 -3 43 -3 42 -336 3
c-184 1 -338 -1 -342 -5z"/>
<path d="M1165 1258 c-2 -7 -6 -29 -7 -48 l-3 -35 -140 -5 -140 -5 -5 -45 -5
-45 -95 -5 c-88 -5 -95 -7 -93 -25 6 -48 -5 -64 -50 -67 -42 -3 -42 -3 -47
-48 l-5 -45 -45 -5 -45 -5 0 -95 0 -95 100 0 100 0 3 42 c3 42 3 42 45 45 l42
3 3 48 3 47 95 0 94 0 0 45 0 45 524 0 525 0 3 -42 3 -43 98 -3 97 -3 0 -49 0
-50 45 0 c43 0 45 -1 45 -29 0 -59 3 -61 111 -61 l99 0 0 100 0 100 -49 0 -50
0 -3 48 -3 47 -42 3 c-42 3 -42 3 -45 45 l-3 42 -95 5 -95 5 -3 48 -3 47 -189
0 -189 0 -3 48 -3 47 -288 3 c-225 2 -288 0 -292 -10z"/>
</g>
</svg>
